<?xml version="1.0" encoding="UTF-8" standalone="no"?>
<svg width="96px" height="72px" viewBox="0 0 96 72" version="1.1" xmlns="http://www.w3.org/2000/svg" xmlns:xlink="http://www.w3.org/1999/xlink">
    <!-- Generator: Sketch 40.2 (33826) - http://www.bohemiancoding.com/sketch -->
    <title>noun_531027_cc</title>
    <desc>Created with Sketch.</desc>
    <defs></defs>
    <g id="Page-1" stroke="none" stroke-width="1" fill="none" fill-rule="evenodd">
        <g id="noun_531027_cc" fill="#000000">
            <g id="Group">
                <path d="M19.117,55.304 L16.888,55.304 L16.199,53.187 C16.152,53.044 16.02,52.947 15.871,52.947 C15.719,52.947 15.587,53.045 15.54,53.187 L14.853,55.304 L12.624,55.304 C12.475,55.304 12.344,55.402 12.297,55.542 C12.251,55.687 12.3,55.841 12.423,55.929 L14.225,57.24 L13.536,59.357 C13.491,59.502 13.542,59.658 13.663,59.746 C13.783,59.836 13.946,59.836 14.071,59.746 L15.872,58.437 L17.673,59.746 C17.733,59.789 17.806,59.812 17.877,59.812 C17.949,59.812 18.021,59.789 18.082,59.746 C18.202,59.658 18.253,59.502 18.208,59.357 L17.519,57.24 L19.321,55.929 C19.443,55.841 19.492,55.687 19.447,55.542 C19.398,55.401 19.267,55.304 19.117,55.304 L19.117,55.304 Z" id="Shape"></path>
                <path d="M32.783,55.304 L30.554,55.304 L29.865,53.187 C29.818,53.044 29.686,52.947 29.537,52.947 C29.385,52.947 29.253,53.045 29.206,53.187 L28.519,55.304 L26.29,55.304 C26.141,55.304 26.01,55.402 25.963,55.542 C25.917,55.687 25.966,55.841 26.089,55.929 L27.891,57.24 L27.2,59.356 C27.155,59.501 27.206,59.657 27.327,59.745 C27.447,59.835 27.61,59.835 27.735,59.745 L29.536,58.436 L31.337,59.745 C31.397,59.788 31.47,59.811 31.541,59.811 C31.613,59.811 31.685,59.788 31.746,59.745 C31.866,59.657 31.917,59.501 31.872,59.356 L31.183,57.239 L32.985,55.928 C33.107,55.84 33.156,55.686 33.111,55.541 C33.064,55.401 32.933,55.304 32.783,55.304 L32.783,55.304 Z" id="Shape"></path>
                <path d="M14.359,29.563 L55.958,29.563 C57.106,29.563 58.038,28.632 58.038,27.483 C58.038,26.334 57.106,25.403 55.958,25.403 L14.359,25.403 C13.21,25.403 12.279,26.334 12.279,27.483 C12.279,28.632 13.21,29.563 14.359,29.563 L14.359,29.563 Z" id="Shape"></path>
                <path d="M14.359,20.194 L70.532,20.194 C71.68,20.194 72.612,19.263 72.612,18.114 C72.612,16.965 71.68,16.034 70.532,16.034 L14.359,16.034 C13.21,16.034 12.279,16.965 12.279,18.114 C12.279,19.263 13.21,20.194 14.359,20.194 L14.359,20.194 Z" id="Shape"></path>
                <path d="M46.59,33.731 L14.36,33.731 C13.211,33.731 12.28,34.662 12.28,35.811 C12.28,36.96 13.211,37.891 14.36,37.891 L46.59,37.891 C47.738,37.891 48.67,36.96 48.67,35.811 C48.67,34.662 47.738,33.731 46.59,33.731 L46.59,33.731 Z" id="Shape"></path>
                <path d="M36.18,42.761 L14.36,42.761 C13.211,42.761 12.28,43.693 12.28,44.841 C12.28,45.989 13.211,46.921 14.36,46.921 L36.18,46.921 C37.328,46.921 38.26,45.989 38.26,44.841 C38.26,43.693 37.328,42.761 36.18,42.761 L36.18,42.761 Z" id="Shape"></path>
                <path d="M89.939,0.89 L6.061,0.89 C3.191,0.89 0.861,3.22 0.861,6.09 L0.861,65.91 C0.861,68.78 3.191,71.11 6.061,71.11 L89.94,71.11 C92.821,71.11 95.14,68.78 95.14,65.91 L95.14,6.09 C95.14,3.22 92.82,0.89 89.939,0.89 L89.939,0.89 Z M91.36,46.729 C91.189,48.429 90.29,49.759 89.63,50.719 C89.44,51.009 89.13,51.479 89.07,51.639 C89.05,51.7 89.02,51.85 89,52.25 C88.99,52.37 88.99,52.52 88.979,52.67 C88.929,54.08 88.87,55.89 87.719,57.49 C86.519,59.099 84.829,59.71 83.599,60.16 C83.259,60.28 82.7,60.49 82.549,60.59 C82.429,60.69 82.079,61.15 81.869,61.42 C81.049,62.47 79.938,63.92 77.999,64.54 L77.839,64.58 C77.61,64.64 77.309,64.71 76.959,64.75 C76.559,64.81 76.059,64.82 75.549,64.77 C74.729,64.72 73.86,64.47 73.159,64.281 C72.808,64.18 72.228,64.01 72.039,64.01 C71.829,64.01 71.249,64.18 70.859,64.29 C70.039,64.519 69.018,64.81 67.888,64.81 C67.248,64.81 66.628,64.72 66.048,64.531 C64.138,63.921 63.018,62.48 62.208,61.421 C61.988,61.141 61.628,60.681 61.488,60.571 C61.358,60.491 60.798,60.281 60.467,60.161 C59.238,59.711 57.547,59.1 56.377,57.511 C55.547,56.381 55.267,55.141 55.167,54.051 L40.33,65.91 L6.061,65.91 L6.061,6.09 L89.94,6.09 L89.94,26.25 L82.98,31.82 C83.18,31.9 83.42,31.99 83.6,32.05 C84.83,32.5 86.52,33.11 87.69,34.69 C88.871,36.33 88.93,38.12 88.98,39.44 L89,39.99 C89.02,40.349 89.04,40.49 89.06,40.54 C89.111,40.71 89.42,41.17 89.63,41.47 C90.21,42.34 90.93,43.4 91.24,44.77 C91.34,45.17 91.4,45.64 91.4,46.111 C91.4,46.32 91.39,46.52 91.36,46.729 L91.36,46.729 Z" id="Shape"></path>
                <path d="M89.01,45.28 C88.98,45.16 88.95,45.04 88.91,44.929 C88.76,44.45 88.53,44.009 88.28,43.589 C88.189,43.439 88.09,43.299 87.99,43.149 C87.91,43.019 87.83,42.899 87.74,42.769 C87.559,42.499 87.38,42.24 87.24,41.99 C87.09,41.729 86.96,41.479 86.88,41.24 C86.83,41.08 86.79,40.889 86.77,40.66 C86.75,40.58 86.75,40.5 86.741,40.41 C86.73,40.33 86.73,40.24 86.72,40.149 C86.71,39.95 86.7,39.78 86.69,39.61 C86.651,38.38 86.611,37.099 85.84,36.04 C85.75,35.91 85.651,35.8 85.54,35.69 C85.37,35.51 85.18,35.36 84.99,35.23 C84.32,34.75 83.54,34.46 82.82,34.2 C82.269,34.01 81.849,33.85 81.53,33.67 C81.42,33.61 81.32,33.55 81.229,33.49 C81.229,33.49 81.219,33.49 81.219,33.48 C81.159,33.44 81.11,33.4 81.059,33.35 C81.009,33.31 80.969,33.27 80.929,33.23 C80.639,32.95 80.36,32.58 80.059,32.2 C79.36,31.29 78.559,30.26 77.33,29.87 L77.32,29.86 C77.259,29.84 77.189,29.82 77.13,29.81 C77.01,29.78 76.901,29.76 76.78,29.74 C76.59,29.71 76.38,29.69 76.17,29.69 C75.98,29.69 75.79,29.7 75.6,29.73 C75.401,29.76 75.201,29.79 75,29.83 C75,29.83 74.99,29.84 74.979,29.83 C74.79,29.88 74.599,29.92 74.41,29.97 C74.21,30.02 74.019,30.07 73.83,30.13 C73.17,30.32 72.559,30.49 72.04,30.49 C71.49,30.49 70.84,30.31 70.17,30.1 C70.16,30.1 70.14,30.09 70.12,30.08 C70.08,30.07 70.019,30.06 69.96,30.04 C69.939,30.03 69.91,30.02 69.88,30.02 C69.85,30.01 69.82,30 69.79,29.99 C69.74,29.97 69.689,29.96 69.67,29.96 L69.66,29.96 C69,29.79 68.16,29.65 67.41,29.72 C67.269,29.73 67.139,29.76 67.01,29.79 C66.93,29.81 66.85,29.83 66.77,29.86 C65.51,30.26 64.72,31.29 64.01,32.19 C63.781,32.49 63.58,32.75 63.39,32.96 C63.3,33.06 63.22,33.15 63.14,33.23 C63.05,33.32 62.97,33.4 62.88,33.46 C62.46,33.76 61.88,33.98 61.26,34.2 C60.46,34.49 59.58,34.81 58.87,35.39 C58.75,35.49 58.64,35.59 58.53,35.7 C58.42,35.81 58.32,35.93 58.229,36.05 C57.459,37.09 57.419,38.38 57.379,39.51 C57.349,40.17 57.329,40.8 57.179,41.27 C57.03,41.72 56.689,42.23 56.329,42.76 C55.679,43.71 54.949,44.781 54.949,46.111 C54.949,46.23 54.959,46.34 54.969,46.461 C54.999,46.801 55.079,47.111 55.179,47.4 C55.179,47.411 55.189,47.421 55.189,47.421 C55.29,47.711 55.419,47.961 55.54,48.191 C55.58,48.271 55.63,48.351 55.67,48.421 C55.76,48.571 55.85,48.711 55.92,48.821 C56.07,49.05 56.2,49.251 56.34,49.461 C56.55,49.771 56.72,50.031 56.861,50.271 C57.001,50.511 57.1,50.721 57.171,50.921 L57.181,50.931 C57.211,51.021 57.231,51.121 57.251,51.221 C57.321,51.541 57.351,51.911 57.361,52.301 C57.371,52.431 57.371,52.561 57.381,52.701 C57.421,53.841 57.461,55.131 58.221,56.15 C58.981,57.19 60.191,57.63 61.251,58.01 C61.801,58.21 62.221,58.37 62.541,58.54 C62.651,58.6 62.751,58.66 62.841,58.72 C62.941,58.79 63.041,58.88 63.141,58.98 C63.202,59.041 63.261,59.1 63.322,59.17 C63.351,59.2 63.391,59.24 63.422,59.29 C63.582,59.46 63.732,59.649 63.882,59.85 C63.922,59.9 63.972,59.951 64.012,60.01 C64.722,60.93 65.512,61.96 66.752,62.35 C66.922,62.411 67.102,62.44 67.272,62.47 C67.472,62.51 67.682,62.52 67.892,62.52 C67.972,62.52 68.052,62.52 68.132,62.5 C68.342,62.49 68.542,62.46 68.752,62.43 C68.852,62.41 68.962,62.4 69.062,62.38 L69.083,62.38 C69.383,62.32 69.673,62.24 69.953,62.17 C70.053,62.14 70.142,62.12 70.232,62.09 C70.392,62.04 70.562,62 70.722,61.95 C71.002,61.87 71.283,61.809 71.542,61.769 C71.722,61.74 71.882,61.719 72.042,61.719 C72.552,61.719 73.152,61.889 73.782,62.07 C74.261,62.21 74.792,62.36 75.282,62.429 C75.431,62.459 75.582,62.479 75.731,62.49 L75.782,62.49 C76.072,62.519 76.271,62.53 76.471,62.51 C76.532,62.5 76.581,62.49 76.641,62.49 C76.691,62.49 76.742,62.479 76.791,62.469 C76.991,62.439 77.131,62.399 77.241,62.369 L77.341,62.348 C77.791,62.208 78.191,61.968 78.541,61.678 C78.661,61.588 78.781,61.489 78.891,61.378 C79.001,61.278 79.112,61.168 79.211,61.048 C79.521,60.718 79.801,60.359 80.061,60.018 C80.242,59.779 80.402,59.569 80.561,59.388 C80.601,59.328 80.652,59.279 80.702,59.228 C80.862,59.039 81.032,58.869 81.202,58.739 C81.612,58.449 82.202,58.239 82.822,58.009 C83.351,57.82 83.922,57.61 84.452,57.329 C84.782,57.139 85.112,56.929 85.391,56.659 C85.452,56.619 85.501,56.569 85.551,56.509 C85.661,56.399 85.761,56.28 85.862,56.149 L85.872,56.139 C86.612,55.11 86.652,53.829 86.691,52.689 C86.702,52.419 86.712,52.25 86.712,52.11 C86.742,51.689 86.782,51.259 86.892,50.929 C86.932,50.82 86.982,50.7 87.042,50.579 C87.122,50.409 87.231,50.219 87.352,50.029 C87.462,49.839 87.602,49.648 87.732,49.449 C88.312,48.598 88.953,47.648 89.083,46.509 C89.093,46.499 89.093,46.479 89.093,46.469 C89.103,46.399 89.103,46.339 89.103,46.28 C89.114,46.219 89.114,46.17 89.114,46.11 C89.114,45.83 89.084,45.54 89.023,45.299 C89.02,45.29 89.02,45.29 89.01,45.28 L89.01,45.28 Z M72.03,55.76 C69.38,55.76 66.969,54.7 65.219,52.97 C65.099,52.85 64.99,52.73 64.879,52.611 L64.879,52.6 C64.099,51.741 63.469,50.741 63.029,49.64 C62.919,49.37 62.829,49.08 62.749,48.8 C62.688,48.571 62.629,48.35 62.579,48.12 C62.438,47.47 62.369,46.79 62.369,46.099 C62.369,45.429 62.438,44.789 62.558,44.16 C62.659,43.689 62.788,43.229 62.949,42.79 C62.999,42.64 63.058,42.49 63.119,42.35 C63.188,42.21 63.249,42.06 63.319,41.911 C63.728,41.071 64.258,40.301 64.879,39.611 C64.979,39.501 65.089,39.39 65.199,39.281 C65.308,39.171 65.419,39.06 65.529,38.961 C65.539,38.961 65.539,38.951 65.539,38.951 C65.969,38.56 66.429,38.211 66.919,37.9 C66.929,37.9 66.929,37.89 66.929,37.89 C68.409,36.981 70.159,36.45 72.03,36.45 C73.469,36.45 74.84,36.76 76.07,37.34 C76.53,37.54 76.969,37.78 77.38,38.06 C77.64,38.22 77.89,38.4 78.12,38.6 C78.36,38.79 78.58,38.991 78.8,39.21 C79.59,39.99 80.25,40.899 80.74,41.91 C80.74,41.92 80.75,41.92 80.75,41.92 C81.35,43.19 81.689,44.6 81.689,46.1 C81.689,51.439 77.36,55.76 72.03,55.76 L72.03,55.76 Z" id="Shape"></path>
                <path d="M77.246,40.919 C76.562,40.406 75.444,40.567 74.934,41.247 L70.284,47.426 L68.988,46.102 C68.391,45.491 67.27,45.476 66.651,46.078 C66.339,46.385 66.163,46.797 66.157,47.238 C66.151,47.679 66.318,48.096 66.627,48.412 L69.267,51.109 C69.576,51.424 70.006,51.605 70.447,51.605 L70.55,51.6 C71.029,51.573 71.472,51.335 71.768,50.947 L77.576,43.233 C77.843,42.876 77.954,42.439 77.889,42.009 C77.827,41.572 77.6,41.186 77.246,40.919 L77.246,40.919 Z" id="Shape"></path>
            </g>
        </g>
    </g>
</svg>