<?xml version="1.0" encoding="UTF-8" standalone="no"?>
<svg width="98px" height="88px" viewBox="0 0 98 88" version="1.1" xmlns="http://www.w3.org/2000/svg" xmlns:xlink="http://www.w3.org/1999/xlink">
    <!-- Generator: Sketch 40.2 (33826) - http://www.bohemiancoding.com/sketch -->
    <title>Shape</title>
    <desc>Created with Sketch.</desc>
    <defs></defs>
    <g id="Page-1" stroke="none" stroke-width="1" fill="none" fill-rule="evenodd">
        <g id="noun_427316_cc" fill="#000000">
            <path d="M8.6,41.4 C8.7,42.8 9,44.1 9.6,45.4 C12.9,52.5 19.4,61.4 19.4,61.4 L19.8,61.9 C20.1,62.3 20.6,62.4 21,62.2 C21.5,61.9 21.6,61.3 21.4,60.9 L12.7,46.8 C11.8,45.2 12.3,43 14,42 C15.7,41 17.9,41.5 18.9,43.1 L27.9,54.7 C28.5,55.5 29.6,56.6 30.4,57.1 C38.5,62.9 39.6,68.9 40.3,71.9 C40.3,71.9 40.4,72.6 40.4,73.6 L40.4,73.6 L40.4,73.6 C40.4,74.4 40.4,75.4 40.2,76.4 L39.7,86.1 C39.7,86.8 39.1,87.4 38.4,87.4 L23.2,87.3 C22.5,87.3 21.9,86.7 21.9,86 L21.6,78 L7.1,60.5 C5,58.2 3.5,55.7 3.1,52.6 L3,51.7 L0.4,27.3 C0.3,26.1 0.7,24.9 1.6,24.1 C2.7,23.2 4.5,22.9 5.9,24.4 C6.8,25.5 7.3,28.8 7.5,29.7 C8,32.9 8.6,37.5 8.7,40.7 C8.6,40.9 8.6,41.2 8.6,41.4 L8.6,41.4 Z M11.3,39 L11.3,39.8 C11.6,39.5 11.9,39.3 12.3,39.1 C12.7,38.8 13.2,38.6 13.7,38.5 C13.7,38.5 13.7,38.4 13.8,38.4 C13.5,35.9 12.6,31.1 11.9,28.6 C11.6,27.4 10.8,26.5 9.6,26 C9.9,26.9 10,27.7 10.2,28.6 C10.6,31.4 11.3,36.4 11.3,39 L11.3,39 Z M16.2,38.1 C16.9,38.1 17.7,38.3 18.4,38.5 C18.2,36.9 17.1,33.6 16.7,32.1 C16.4,30.9 15.7,30 14.4,29.6 C14.8,31.4 15.8,34.8 16.1,36.6 L16.3,37.8 C16.2,37.8 16.2,38 16.2,38.1 L16.2,38.1 Z M96.4,24.1 C95.3,23.2 93.5,22.9 92.1,24.4 C91.2,25.5 90.7,28.8 90.5,29.7 C90,32.9 89.4,37.5 89.3,40.7 L89.3,41.4 C89.2,42.8 88.9,44.1 88.3,45.4 C85,52.5 78.5,61.4 78.5,61.4 L78.2,62 C77.9,62.4 77.4,62.5 77,62.3 C76.5,62 76.4,61.4 76.6,61 L85.3,46.9 C86.2,45.3 85.7,43.1 84,42.1 C82.3,41.1 80.1,41.6 79.1,43.2 L70.1,54.8 C69.5,55.6 68.4,56.7 67.6,57.2 C59.5,63 58.4,69 57.7,72 C57.7,72 57.6,72.7 57.6,73.7 L57.6,73.7 C57.6,74.5 57.6,75.5 57.8,76.5 L58.3,86.2 C58.3,86.9 58.9,87.5 59.6,87.5 L74.8,87.4 C75.5,87.4 76.1,86.8 76.1,86.1 L76.4,78.1 L90.9,60.7 C93,58.4 94.5,55.9 94.9,52.8 L95,51.9 L97.5,27.4 C97.7,26.1 97.3,24.8 96.4,24.1 L96.4,24.1 Z M86.7,39.8 L86.7,39 C86.8,36.3 87.4,31.4 87.9,28.6 C88,27.8 88.2,26.9 88.5,26 C87.2,26.4 86.5,27.3 86.2,28.6 C85.5,31.1 84.7,35.9 84.3,38.4 C84.3,38.4 84.3,38.5 84.4,38.5 C84.9,38.7 85.3,38.9 85.8,39.1 C86,39.3 86.4,39.6 86.7,39.8 L86.7,39.8 Z M81.9,36.5 C82.1,34.7 83.2,31.4 83.6,29.5 C82.4,29.9 81.7,30.8 81.3,32 C80.9,33.5 79.8,36.8 79.6,38.4 C80.3,38.1 81,38 81.8,38 L81.8,37.7 L81.9,36.5 L81.9,36.5 Z M23.9,27 C24.9,25.9 25.1,24.2 24.3,22.9 L23.6,21.7 C22.6,19.9 23.4,17.5 25.3,16.7 L26.6,16.2 C28,15.6 28.9,14.2 28.8,12.7 L28.7,11.3 C28.6,9.2 30.3,7.4 32.4,7.5 L33.8,7.6 C35.3,7.7 36.7,6.8 37.3,5.4 L37.8,4.1 C38.6,2.1 40.9,1.3 42.8,2.3 L44,3 C45.3,3.7 47,3.5 48.1,2.5 L49.1,1.6 C50.7,0.2 53.1,0.4 54.3,2.2 L55.1,3.3 C56,4.5 57.5,5.1 59,4.6 L60.3,4.2 C62.3,3.6 64.4,4.9 64.8,7 L65,8.4 C65.3,9.9 66.4,11 67.9,11.3 L69.3,11.5 C71.4,11.8 72.7,13.9 72.1,15.9 L71.7,17.2 C71.3,18.7 71.8,20.2 73.1,21.1 L74.2,21.9 C75.9,23.1 76.2,25.6 74.8,27.1 L73.9,28.1 C72.9,29.2 72.7,30.9 73.5,32.2 L74.2,33.4 C75.2,35.2 74.4,37.6 72.5,38.4 L71.2,38.9 C69.8,39.5 68.9,40.9 69,42.4 L69.1,43.8 C69.2,45.9 67.5,47.7 65.4,47.6 L64,47.5 C62.5,47.4 61.1,48.3 60.5,49.7 L60.2,51 C59.4,53 57.1,53.8 55.2,52.8 L54,52.1 C52.7,51.4 51,51.6 49.9,52.6 L48.9,53.5 C47.3,54.9 44.9,54.7 43.7,52.9 L42.9,51.8 C42,50.6 40.5,50 39,50.5 L37.7,50.9 C35.7,51.5 33.6,50.2 33.2,48.1 L33,46.7 C32.7,45.2 31.6,44.1 30.1,43.8 L28.7,43.6 C26.6,43.3 25.3,41.2 25.9,39.2 L26.3,37.9 C26.7,36.4 26.2,34.9 24.9,34 L23.8,33.2 C22.1,32 21.8,29.5 23.2,28 L23.9,27 L23.9,27 Z M32.3,27.5 C32.3,36.7 39.8,44.2 49,44.2 C58.2,44.2 65.7,36.7 65.7,27.5 C65.7,18.3 58.2,10.8 49,10.8 C39.8,10.8 32.3,18.3 32.3,27.5 L32.3,27.5 Z M48,37.6 L48,39.8 C48,40.1 48.2,40.3 48.5,40.3 L50.5,40.3 C50.8,40.3 51,40.1 51,39.8 L51,37.5 C52.3,37.3 53.4,36.7 54.3,35.9 C55.3,34.9 55.8,33.7 55.8,32.1 C55.8,30.5 55.3,29.2 54.3,28.3 C53.3,27.4 51.8,26.5 49.7,25.6 C48.8,25.2 48.2,24.8 47.9,24.4 C47.6,24 47.4,23.5 47.4,22.9 C47.4,22.3 47.6,21.8 47.9,21.4 C48.2,21 48.7,20.8 49.3,20.8 C49.9,20.8 50.4,21 50.8,21.5 C51.1,21.9 51.3,22.4 51.3,23.1 C51.3,23.4 51.6,23.7 51.9,23.6 L55.1,23.6 C55.5,23.6 55.7,23.3 55.7,22.9 C55.6,21.5 55.2,20.3 54.3,19.3 C53.4,18.3 52.3,17.7 50.9,17.4 L50.9,15 C50.9,14.7 50.7,14.5 50.4,14.5 L48.4,14.5 C48.1,14.5 47.9,14.7 47.9,15 L47.9,17.4 C46.4,17.6 45.2,18.2 44.3,19.1 C43.3,20.1 42.8,21.3 42.8,22.9 C42.8,24.6 43.3,25.9 44.3,26.7 C45.3,27.6 46.8,28.4 48.9,29.3 C49.8,29.7 50.4,30.1 50.7,30.5 C51,30.9 51.2,31.4 51.2,32.2 C51.2,32.8 51,33.3 50.7,33.7 C50.4,34.1 49.9,34.3 49.2,34.3 C48.4,34.3 47.8,34.1 47.3,33.6 C46.9,33.2 46.7,32.6 46.6,31.8 C46.6,31.5 46.3,31.2 46,31.2 L42.8,31.3 C42.4,31.3 42.2,31.6 42.2,32 C42.3,33.7 42.8,35 43.9,36 C45,36.8 46.3,37.4 48,37.6 L48,37.6 Z" id="Shape"></path>
        </g>
    </g>
</svg>