<svg xmlns="http://www.w3.org/2000/svg" width="143" height="254" viewBox="0 0 143 254"><path fill="#1A1918" fill-rule="evenodd" d="M122.249 220.1s-2.155 14.842-20.407 14.842c-17.044 0-20.87-15.768-20.87-15.768s-.112-31.011.001-30.122c.727 1.944 4.472 7.859 20.637 7.859 24.581 0 20.639 23.189 20.639 23.189zm-81.928-26.811c-24.582 0-20.64-23.189-20.64-23.189s2.157-15.77 20.407-15.77c17.046 0 20.954 16.696 20.954 16.696s-.045 30.696 0 31.049c.271.722-4.556-8.786-20.721-8.786zm94.03-.643c-13.839-17.175-26.943-12.537-37.674-15.259-20.672-5.239-7.709-31.74 11.446-23.365 6.36 2.781 7.402 11.446 7.402 11.446h20.255s.077-32.166-34.506-32.108c-11.837.022-20.301 5.054-20.301 5.054V0H61.042v138.272s-8.477-4.84-18.151-4.84C25.2 133.432 0 144.798 0 173.964c0 30.151 22.801 40.31 40.635 41.994 17.804 1.679 20.407 9.033 20.407 9.033s6.827 28.426 40.546 28.515c34.265.087 52.509-36.347 32.763-60.86z"/></svg>