<?xml version="1.0" encoding="UTF-8" standalone="no"?>
<svg width="48px" height="64px" viewBox="0 0 48 64" version="1.1" xmlns="http://www.w3.org/2000/svg" xmlns:xlink="http://www.w3.org/1999/xlink">
    <!-- Generator: Sketch 40.2 (33826) - http://www.bohemiancoding.com/sketch -->
    <title>noun_580770_cc</title>
    <desc>Created with Sketch.</desc>
    <defs></defs>
    <g id="Page-1" stroke="none" stroke-width="1" fill="none" fill-rule="evenodd">
        <g id="noun_580770_cc" fill="#000000">
            <g id="Group">
                <path d="M20.347,7.574 C20.308,11.472 16.781,14.943 12.924,14.874 C9.029,14.805 5.567,11.266 5.633,7.424 C5.702,3.448 9.077,0.172 13.074,0.199 C17.038,0.226 20.386,3.619 20.347,7.574 L20.347,7.574 Z" id="Shape"></path>
                <path d="M43.99,28.801 C43.8,28.791 43.62,28.771 43.44,28.751 C43.25,28.731 43.05,28.711 42.88,28.691 L42.47,28.651 C41.74,28.571 41.05,28.501 40.4,28.391 C37.48,27.841 34.77,26.671 32.13,24.831 C30.87,23.911 29.31,23.841 27.9,24.711 L27.62,24.901 C26.94,25.341 26.24,25.781 25.55,26.141 C25.45,26.201 25.35,26.251 25.24,26.301 C25.24,25.121 25.22,23.981 25.2,22.871 C25.19,22.561 25.11,21.851 25.04,21.161 C24.98,20.621 24.92,20.101 24.91,19.911 C24.88,19.061 24.37,18.451 23.48,18.171 L23.33,18.131 C22.26,17.801 21.19,17.441 20.19,17.101 C20.11,17.071 19.98,17.021 19.83,16.971 C19.01,16.671 18.25,16.401 17.93,16.401 L17.8,16.411 C17.32,16.541 17.17,17.001 17.12,17.151 C17.09,17.231 16.79,18.211 16.4,19.461 C15.92,21.011 15.31,22.971 14.93,24.171 L14.48,20.771 C14.48,20.721 14.47,20.661 14.46,20.631 L14.41,20.221 C14.39,20.011 14.37,19.861 14.36,19.791 C14.43,19.621 14.5,19.471 14.57,19.311 L14.59,19.251 C14.63,19.151 14.68,19.051 14.72,18.961 L14.79,18.841 C14.87,18.691 14.96,18.511 14.96,18.271 C14.96,18.171 14.74,17.501 14.68,17.451 C14.56,17.261 14.4,17.211 14.29,17.181 L14.15,17.161 C14.08,17.141 14.03,17.141 14.01,17.141 C13.85,17.131 13.47,17.131 12.99,17.131 C12.51,17.131 12.13,17.131 11.99,17.141 C11.96,17.141 11.9,17.141 11.83,17.161 L11.68,17.181 C11.58,17.211 11.43,17.261 11.33,17.411 C11.24,17.501 11.02,18.171 11.02,18.271 C11.02,18.511 11.11,18.691 11.19,18.821 L11.26,18.971 C11.3,19.051 11.35,19.151 11.39,19.251 L11.41,19.311 C11.49,19.471 11.55,19.621 11.62,19.791 C11.61,19.861 11.6,20.011 11.57,20.221 L11.52,20.621 C11.51,20.661 11.5,20.721 11.51,20.731 L11.05,24.171 C10.68,22.971 10.06,21.011 9.58,19.461 C9.19,18.211 8.89,17.231 8.86,17.151 C8.81,17.001 8.66,16.541 8.18,16.411 L8.05,16.401 C7.73,16.401 6.97,16.671 6.15,16.971 C6,17.021 5.87,17.071 5.79,17.101 C4.79,17.441 3.72,17.801 2.65,18.131 L2.5,18.171 C1.61,18.451 1.1,19.061 1.07,19.911 C1.06,20.101 1,20.621 0.94,21.161 C0.87,21.851 0.79,22.561 0.78,22.871 C0.7,26.721 0.7,30.951 0.78,35.781 C0.8,36.701 0.99,37.611 1.35,38.471 C1.71,39.361 2.26,40.241 2.99,41.091 C3.02,41.121 3.04,41.141 3.07,41.191 C3.18,41.331 3.27,41.481 3.36,41.631 C3.37,41.991 3.39,42.341 3.41,42.701 C3.52,45.301 3.63,45.581 3.71,47.921 C3.71,48.121 3.73,48.311 3.75,48.471 L3.75,51.631 C3.74,53.221 3.74,54.801 3.74,56.381 C3.75,60.751 6.79,63.801 11.17,63.801 L14.83,63.801 L14.84,63.801 C18.86,63.801 21.76,61.191 22.18,57.341 C23.99,58.821 26.04,60.101 28.33,61.161 C28.79,61.361 29.32,61.471 29.87,61.471 C30.54,61.471 31.19,61.301 31.7,61.011 C37.35,57.781 41.52,53.331 44.09,47.791 C46.14,43.361 47.18,38.331 47.28,32.391 C47.28,30.811 46.25,29.011 43.99,28.801 L43.99,28.801 Z M40.53,46.141 C38.33,50.881 34.74,54.711 29.85,57.521 C26.81,56.111 24.26,54.251 22.24,51.981 C21.5,51.151 20.83,50.261 20.23,49.321 C18.69,46.901 17.62,44.151 16.98,40.921 C16.62,39.001 16.42,36.951 16.39,34.691 L16.38,33.971 L16.38,32.701 C19.64,32.441 22.56,31.761 25.25,30.631 C25.99,30.331 26.71,29.991 27.42,29.611 C28.14,29.221 28.84,28.781 29.52,28.351 L29.94,28.081 C32.99,30.211 36.27,31.611 39.69,32.241 C40.61,32.411 41.54,32.501 42.44,32.591 C42.74,32.621 43.03,32.651 43.34,32.691 C43.22,37.881 42.3,42.291 40.53,46.141 L40.53,46.141 Z" id="Shape"></path>
                <g transform="translate(21.000000, 32.000000)" id="Shape">
                    <path d="M17.038,3.259 C14.286,2.746 11.601,1.681 9.078,0.075 L9.078,10.8 L17.712,10.8 C18.44,8.601 18.859,6.213 19.007,3.529 C18.374,3.461 17.713,3.38 17.038,3.259 L17.038,3.259 Z"></path>
                    <path d="M2.198,15.414 C3.844,18.004 6.097,20.014 9.078,21.539 L9.078,10.8 L0.134,10.8 C0.647,12.527 1.321,14.038 2.198,15.414 L2.198,15.414 Z"></path>
                </g>
            </g>
        </g>
    </g>
</svg>