<?xml version="1.0" encoding="UTF-8" standalone="no"?>
<svg width="100px" height="100px" viewBox="0 0 100 100" version="1.1" xmlns="http://www.w3.org/2000/svg" xmlns:xlink="http://www.w3.org/1999/xlink">
    <!-- Generator: Sketch 40.2 (33826) - http://www.bohemiancoding.com/sketch -->
    <title>Slice 1</title>
    <desc>Created with Sketch.</desc>
    <defs></defs>
    <g id="Page-1" stroke="none" stroke-width="1" fill="none" fill-rule="evenodd">
        <g id="noun_144443_cc" fill="#000000">
            <g id="Group" transform="translate(41.000000, 15.000000)">
                <path d="M9.061,0.666 C11.117,0.666 12.79,2.333 12.79,4.395 C12.79,6.452 11.117,8.118 9.061,8.118 C7.001,8.118 5.332,6.452 5.332,4.395 C5.332,2.333 7.001,0.666 9.061,0.666 L9.061,0.666 Z" id="Shape"></path>
                <path d="M4.651,44.26 C4.651,45.411 5.591,46.35 6.741,46.35 C7.897,46.35 8.833,45.412 8.833,44.26 L8.838,26.726 L9.765,26.726 L9.762,44.26 C9.762,45.411 10.694,46.35 11.852,46.35 C13.002,46.35 13.939,45.412 13.939,44.26 L13.947,14.035 L14.865,14.035 L14.865,25.173 C14.865,27.416 17.787,27.416 17.781,25.173 L17.781,13.799 C17.781,11.325 16.327,8.895 13.433,8.895 L5.078,8.895 C2.435,8.895 0.781,11.045 0.781,13.73 L0.781,25.173 C0.781,27.4 3.719,27.4 3.719,25.173 L3.719,14.035 L4.657,14.035 L4.651,44.26 L4.651,44.26 Z" id="Shape"></path>
            </g>
            <g id="Group" transform="translate(65.000000, 0.000000)">
                <path d="M7.617,0 C9.35,0 10.759,1.404 10.759,3.141 C10.759,4.874 9.351,6.277 7.617,6.277 C5.883,6.277 4.476,4.874 4.476,3.141 C4.477,1.404 5.883,0 7.617,0 L7.617,0 Z" id="Shape"></path>
                <path d="M3.902,36.729 C3.902,37.696 4.693,38.489 5.664,38.489 C6.638,38.489 7.426,37.697 7.426,36.729 L7.429,21.954 L8.21,21.954 L8.207,36.729 C8.207,37.696 8.992,38.489 9.968,38.489 C10.938,38.489 11.727,37.697 11.727,36.729 L11.734,11.264 L12.506,11.264 L12.506,20.647 C12.506,22.536 14.971,22.536 14.963,20.647 L14.963,11.064 C14.963,8.981 13.738,6.933 11.301,6.933 L4.261,6.933 C2.037,6.933 0.642,8.745 0.642,11.006 L0.642,20.647 C0.642,22.524 3.119,22.524 3.119,20.647 L3.119,11.264 L3.907,11.264 L3.902,36.729 L3.902,36.729 Z" id="Shape"></path>
            </g>
            <g id="Group" transform="translate(69.000000, 60.000000)">
                <path d="M7.838,0.547 C9.572,0.547 10.981,1.95 10.981,3.688 C10.981,5.422 9.573,6.825 7.838,6.825 C6.105,6.825 4.697,5.423 4.697,3.688 C4.697,1.95 6.104,0.547 7.838,0.547 L7.838,0.547 Z" id="Shape"></path>
                <path d="M4.124,37.275 C4.124,38.241 4.915,39.036 5.886,39.036 C6.86,39.036 7.648,38.241 7.648,37.275 L7.651,22.501 L8.432,22.501 L8.429,37.275 C8.429,38.241 9.214,39.036 10.19,39.036 C11.16,39.036 11.949,38.241 11.949,37.275 L11.956,11.81 L12.728,11.81 L12.728,21.192 C12.728,23.083 15.192,23.083 15.185,21.192 L15.185,11.61 C15.185,9.527 13.96,7.479 11.523,7.479 L4.483,7.479 C2.258,7.479 0.864,9.29 0.864,11.552 L0.864,21.192 C0.864,23.07 3.341,23.07 3.341,21.192 L3.341,11.81 L4.129,11.81 L4.124,37.275 L4.124,37.275 Z" id="Shape"></path>
            </g>
            <g id="Group" transform="translate(84.000000, 27.000000)">
                <path d="M7.681,0.116 C9.415,0.116 10.823,1.52 10.823,3.256 C10.823,4.99 9.416,6.393 7.681,6.393 C5.946,6.393 4.542,4.99 4.542,3.256 C4.542,1.52 5.946,0.116 7.681,0.116 L7.681,0.116 Z" id="Shape"></path>
                <path d="M3.967,36.845 C3.967,37.811 4.757,38.604 5.728,38.604 C6.702,38.604 7.493,37.811 7.493,36.845 L7.497,22.07 L8.278,22.07 L8.274,36.845 C8.274,37.811 9.059,38.604 10.033,38.604 C11.003,38.604 11.794,37.811 11.794,36.845 L11.798,11.379 L12.571,11.379 L12.571,20.763 C12.571,22.652 15.036,22.652 15.028,20.763 L15.028,11.18 C15.028,9.097 13.805,7.049 11.365,7.049 L4.326,7.049 C2.103,7.049 0.709,8.861 0.709,11.122 L0.709,20.763 C0.709,22.639 3.183,22.639 3.183,20.763 L3.183,11.379 L3.973,11.379 L3.967,36.845 L3.967,36.845 Z" id="Shape"></path>
            </g>
            <g id="Group" transform="translate(20.000000, 0.000000)">
                <path d="M7.384,0 C5.65,0 4.241,1.404 4.241,3.141 C4.241,4.874 5.649,6.277 7.384,6.277 C9.117,6.277 10.524,4.874 10.524,3.141 C10.523,1.404 9.117,0 7.384,0 L7.384,0 Z" id="Shape"></path>
                <path d="M11.098,36.729 C11.098,37.696 10.307,38.489 9.336,38.489 C8.362,38.489 7.574,37.697 7.574,36.729 L7.571,21.954 L6.79,21.954 L6.793,36.729 C6.793,37.696 6.008,38.489 5.032,38.489 C4.062,38.489 3.273,37.697 3.273,36.729 L3.266,11.264 L2.494,11.264 L2.494,20.647 C2.494,22.536 0.029,22.536 0.037,20.647 L0.037,11.064 C0.037,8.981 1.262,6.933 3.699,6.933 L10.739,6.933 C12.963,6.933 14.359,8.745 14.359,11.006 L14.359,20.647 C14.359,22.524 11.881,22.524 11.881,20.647 L11.881,11.264 L11.093,11.264 L11.098,36.729 L11.098,36.729 Z" id="Shape"></path>
            </g>
            <g id="Group" transform="translate(15.000000, 60.000000)">
                <path d="M8.162,0.547 C6.428,0.547 5.019,1.95 5.019,3.688 C5.019,5.422 6.427,6.825 8.162,6.825 C9.895,6.825 11.303,5.423 11.303,3.688 C11.303,1.95 9.896,0.547 8.162,0.547 L8.162,0.547 Z" id="Shape"></path>
                <path d="M11.876,37.275 C11.876,38.241 11.085,39.036 10.114,39.036 C9.14,39.036 8.352,38.241 8.352,37.275 L8.349,22.501 L7.568,22.501 L7.571,37.275 C7.571,38.241 6.786,39.036 5.81,39.036 C4.84,39.036 4.051,38.241 4.051,37.275 L4.044,11.81 L3.272,11.81 L3.272,21.192 C3.272,23.083 0.808,23.083 0.815,21.192 L0.815,11.61 C0.815,9.527 2.04,7.479 4.477,7.479 L11.517,7.479 C13.742,7.479 15.137,9.29 15.137,11.552 L15.137,21.192 C15.137,23.07 12.659,23.07 12.659,21.192 L12.659,11.81 L11.871,11.81 L11.876,37.275 L11.876,37.275 Z" id="Shape"></path>
            </g>
            <g id="Group" transform="translate(0.000000, 27.000000)">
                <path d="M8.319,0.116 C6.585,0.116 5.177,1.52 5.177,3.256 C5.177,4.99 6.584,6.393 8.319,6.393 C10.054,6.393 11.458,4.99 11.458,3.256 C11.458,1.52 10.054,0.116 8.319,0.116 L8.319,0.116 Z" id="Shape"></path>
                <path d="M12.033,36.845 C12.033,37.811 11.243,38.604 10.272,38.604 C9.298,38.604 8.507,37.811 8.507,36.845 L8.503,22.07 L7.722,22.07 L7.726,36.845 C7.726,37.811 6.941,38.604 5.967,38.604 C4.997,38.604 4.206,37.811 4.206,36.845 L4.202,11.379 L3.429,11.379 L3.429,20.763 C3.429,22.652 0.964,22.652 0.972,20.763 L0.972,11.18 C0.972,9.097 2.195,7.049 4.635,7.049 L11.674,7.049 C13.897,7.049 15.291,8.861 15.291,11.122 L15.291,20.763 C15.291,22.639 12.817,22.639 12.817,20.763 L12.817,11.379 L12.027,11.379 L12.033,36.845 L12.033,36.845 Z" id="Shape"></path>
            </g>
            <rect id="Rectangle-path" x="28.041" y="56.584" width="8.269" height="1.408"></rect>
            <polygon id="Shape" points="28.041 54.88 23.87 57.288 28.041 59.695"></polygon>
            <polygon id="Shape" points="36.31 59.695 40.481 57.289 36.31 54.88"></polygon>
            <rect id="Rectangle-path" transform="translate(40.062741, 69.034305) rotate(134.991897) translate(-40.062741, -69.034305) " x="36.1672786" y="68.330812" width="7.79092536" height="1.40698652"></rect>
            <polygon id="Shape" points="35.589 70.071 34.343 74.723 38.994 73.476"></polygon>
            <polygon id="Shape" points="44.503 67.967 45.752 63.315 41.099 64.562"></polygon>
            <g id="Group" transform="translate(32.000000, 41.000000)">
                <rect id="Rectangle-path" transform="translate(5.219536, 5.764082) rotate(224.991897) translate(-5.219536, -5.764082) " x="2.13306607" y="5.06058904" width="6.17294086" height="1.40698652"></rect>
                <polygon id="Shape" points="4.747 1.868 0.096 0.622 1.343 5.273"></polygon>
                <polygon id="Shape" points="5.72 9.65 10.371 10.899 9.125 6.246"></polygon>
            </g>
            <rect id="Rectangle-path" x="64.022" y="56.584" width="8.269" height="1.408"></rect>
            <polygon id="Shape" points="72.291 54.88 76.462 57.288 72.291 59.695"></polygon>
            <polygon id="Shape" points="64.022 59.695 59.851 57.289 64.022 54.88"></polygon>
            <rect id="Rectangle-path" transform="translate(60.264658, 69.027778) rotate(45.008103) translate(-60.264658, -69.027778) " x="56.3691956" y="68.3242846" width="7.79092536" height="1.40698652"></rect>
            <polygon id="Shape" points="64.743 70.071 65.989 74.723 61.338 73.476"></polygon>
            <polygon id="Shape" points="55.829 67.967 54.58 63.315 59.233 64.562"></polygon>
            <g id="Group" transform="translate(57.000000, 41.000000)">
                <rect id="Rectangle-path" transform="translate(6.109634, 5.765487) rotate(-44.991897) translate(-6.109634, -5.765487) " x="3.02316367" y="5.06199344" width="6.17294086" height="1.40698652"></rect>
                <polygon id="Shape" points="6.585 1.868 11.236 0.622 9.989 5.273"></polygon>
                <polygon id="Shape" points="5.612 9.65 0.961 10.899 2.207 6.246"></polygon>
            </g>
        </g>
    </g>
</svg>