<?xml version="1.0" encoding="UTF-8" standalone="no"?>
<svg width="46px" height="40px" viewBox="0 0 46 40" version="1.1" xmlns="http://www.w3.org/2000/svg" xmlns:xlink="http://www.w3.org/1999/xlink">
    <!-- Generator: Sketch 41.1 (35376) - http://www.bohemiancoding.com/sketch -->
    <title>Bricklayers</title>
    <desc>Created with Sketch.</desc>
    <defs></defs>
    <g id="DREAMSTONE-website" stroke="none" stroke-width="1" fill="none" fill-rule="evenodd">
        <g id="About" transform="translate(-561.000000, -786.000000)" fill="#4A4A4A">
            <g id="trades" transform="translate(454.000000, 786.000000)">
                <g id="Bricklayers" transform="translate(107.000000, 0.000000)">
                    <g id="82--Wall--(construction,-tool,-work,-building)">
                        <g id="Group">
                            <g id="Shape">
                                <g>
                                    <polygon points="23.4038644 25.1003922 32.7597966 25.1003922 32.7597966 20.3945098 23.4038644 20.3945098"></polygon>
                                    <polygon points="0.0140338983 25.1003922 10.9292881 25.1003922 10.9292881 20.3945098 0.0140338983 20.3945098"></polygon>
                                    <polygon points="17.9462373 31.374902 27.3021695 31.374902 27.3021695 26.6690196 17.9462373 26.6690196"></polygon>
                                    <polygon points="17.9462373 18.8258824 27.3021695 18.8258824 27.3021695 14.12 17.9462373 14.12"></polygon>
                                    <polygon points="7.03098305 18.8258824 16.3869153 18.8258824 16.3869153 14.12 7.03098305 14.12"></polygon>
                                    <polygon points="12.4886102 12.5513725 21.8445424 12.5513725 21.8445424 7.8454902 12.4886102 7.8454902"></polygon>
                                    <polygon points="28.8614915 31.374902 38.2174237 31.374902 38.2174237 26.6690196 28.8614915 26.6690196"></polygon>
                                    <polygon points="0.0140338983 31.374902 5.47166102 31.374902 5.47166102 26.6690196 0.0140338983 26.6690196"></polygon>
                                    <polygon points="0.0140338983 12.5513725 10.9292881 12.5513725 10.9292881 7.8454902 0.0140338983 7.8454902"></polygon>
                                    <polygon points="28.8614915 18.8258824 38.2174237 18.8258824 38.2174237 14.12 28.8614915 14.12"></polygon>
                                    <polygon points="34.3191186 25.1003922 45.2343729 25.1003922 45.2343729 20.3945098 34.3191186 20.3945098"></polygon>
                                    <path d="M34.3189627,32.9439216 L34.3189627,39.2184314 L44.4545559,39.2184314 C44.8849288,39.2184314 45.2342169,38.8678431 45.2342169,38.4341176 L45.2342169,32.9439216 L34.3189627,32.9439216 Z"></path>
                                    <polygon points="39.7767458 31.374902 45.2343729 31.374902 45.2343729 26.6690196 39.7767458 26.6690196"></polygon>
                                    <polygon points="39.7767458 18.8258824 45.2343729 18.8258824 45.2343729 14.12 39.7767458 14.12"></polygon>
                                    <path d="M7.03082712,6.2772549 L17.9460814,6.2772549 L17.9460814,0.787058824 C17.9460814,0.353333333 17.5967932,0.00274509804 17.1664203,0.00274509804 L7.03082712,0.00274509804 L7.03082712,6.2772549 Z"></path>
                                    <path d="M5.47150508,6.2772549 L5.47150508,0.00274509804 L0.793538983,0.00274509804 C0.363166102,0.00274509804 0.0138779661,0.353333333 0.0138779661,0.787058824 L0.0138779661,6.2772549 L5.47150508,6.2772549 Z"></path>
                                    <path d="M10.9291322,32.9439216 L0.0138779661,32.9439216 L0.0138779661,38.4341176 C0.0138779661,38.8678431 0.363166102,39.2184314 0.793538983,39.2184314 L10.9291322,39.2184314 L10.9291322,32.9439216 Z"></path>
                                    <polygon points="23.4038644 39.2180392 32.7597966 39.2180392 32.7597966 32.9435294 23.4038644 32.9435294"></polygon>
                                    <polygon points="12.4886102 25.1003922 21.8445424 25.1003922 21.8445424 20.3945098 12.4886102 20.3945098"></polygon>
                                    <polygon points="0.0140338983 18.8258824 5.47166102 18.8258824 5.47166102 14.12 0.0140338983 14.12"></polygon>
                                    <polygon points="23.4038644 12.5513725 32.7597966 12.5513725 32.7597966 7.8454902 23.4038644 7.8454902"></polygon>
                                    <polygon points="7.03098305 31.374902 16.3869153 31.374902 16.3869153 26.6690196 7.03098305 26.6690196"></polygon>
                                    <polygon points="12.4886102 39.2180392 21.8445424 39.2180392 21.8445424 32.9435294 12.4886102 32.9435294"></polygon>
                                </g>
                            </g>
                        </g>
                    </g>
                </g>
            </g>
        </g>
    </g>
</svg>