<?xml version="1.0" encoding="UTF-8" standalone="no"?>
<svg width="39px" height="40px" viewBox="0 0 39 40" version="1.1" xmlns="http://www.w3.org/2000/svg" xmlns:xlink="http://www.w3.org/1999/xlink">
    <!-- Generator: Sketch 41.1 (35376) - http://www.bohemiancoding.com/sketch -->
    <title>decorators</title>
    <desc>Created with Sketch.</desc>
    <defs></defs>
    <g id="DREAMSTONE-website" stroke="none" stroke-width="1" fill="none" fill-rule="evenodd">
        <g id="About" transform="translate(-1058.000000, -786.000000)">
            <g id="trades" transform="translate(454.000000, 786.000000)">
                <g id="decorators" transform="translate(604.000000, 0.000000)">
                    <g id="Group">
                        <path d="M20,38 L20,30 C20,28.8 19.2,28 18,28 L14,28 C12.8,28 12,28.8 12,30 L12,38 C12,39.2 12.8,40 14,40 L18,40 C19.2,40 20,39.2 20,38 Z" id="Shape" fill="#4A4A4A"></path>
                        <path d="M2,12 L30,12 C31.2,12 32,11.2 32,10 L32,2 C32,0.8 31.2,0 30,0 L2,0 C0.8,0 0,0.8 0,2 L0,10 C0,11.2 0.8,12 2,12 Z" id="Shape" fill="#4A4A4A"></path>
                        <path d="M16,26 L16,22 L33.6,18.6 C36.2,18.2 38,16 38,13.4 L38,6 L34,6" id="Shape" stroke="#4A4A4A" stroke-width="1.01265823"></path>
                    </g>
                </g>
            </g>
        </g>
    </g>
</svg>