<?xml version="1.0" encoding="UTF-8" standalone="no"?>
<svg width="36px" height="40px" viewBox="0 0 36 40" version="1.1" xmlns="http://www.w3.org/2000/svg" xmlns:xlink="http://www.w3.org/1999/xlink">
    <!-- Generator: Sketch 41.1 (35376) - http://www.bohemiancoding.com/sketch -->
    <title>electricians</title>
    <desc>Created with Sketch.</desc>
    <defs></defs>
    <g id="DREAMSTONE-website" stroke="none" stroke-width="1" fill="none" fill-rule="evenodd">
        <g id="About" transform="translate(-827.000000, -786.000000)" fill="#4A4A4A">
            <g id="trades" transform="translate(454.000000, 786.000000)">
                <g id="electricians" transform="translate(373.000000, 0.000000)">
                    <g id="Artboard-5">
                        <path d="M26.0767059,13.8694737 C25.8171101,13.5337922 25.7439596,13.0911325 25.8818824,12.6905263 L28.4823529,5.11157895 C28.7092445,4.45116266 29.4316989,4.09864581 30.096,4.32421053 C30.7603011,4.54977525 31.1148916,5.26800476 30.888,5.92842105 L28.9058824,11.7136842 L32.5778824,11.4652632 C33.0030392,11.440799 33.4122507,11.6297134 33.6677718,11.9684158 C33.9232929,12.3071181 33.9911383,12.7505599 33.8484706,13.1494737 L31.248,20.7284211 C31.1012269,21.1556355 30.7363461,21.4725533 30.2908046,21.5597946 C29.8452632,21.6470359 29.3867494,21.4913467 29.0879811,21.1513736 C28.7892127,20.8114004 28.6955798,20.3387934 28.8423529,19.9115789 L30.8244706,14.1347368 L27.1524706,14.3831579 C26.7302715,14.4004184 26.3270656,14.2078851 26.0767059,13.8694737 L26.0767059,13.8694737 Z M0,16.9557895 L0,8.64 C-3.76169684e-16,7.94237716 0.56886173,7.37684211 1.27058824,7.37684211 L4.65882353,7.37684211 L4.65882353,1.26315789 C4.65882353,0.565535053 5.22768526,1.8698493e-16 5.92941176,0 C6.63113827,-1.8698493e-16 7.2,0.565535053 7.2,1.26315789 L7.2,7.37684211 L14.1712941,7.37684211 L14.1712941,1.26315789 C14.1712941,0.565535053 14.7401558,1.8698493e-16 15.4418824,0 C16.1436089,-1.8698493e-16 16.7124706,0.565535053 16.7124706,1.26315789 L16.7124706,7.37684211 L20.1007059,7.37684211 C20.8024324,7.37684211 21.3712941,7.94237716 21.3712941,8.64 L21.3712941,16.9557895 C21.3652426,22.1960451 17.3086911,26.5515004 12.0536471,26.96 C12.0536471,27.4568421 12.0282353,28.9136842 12.0536471,33.0315789 C12.1272048,35.3822074 14.065224,37.2498864 16.4308235,37.2498864 C18.7964231,37.2498864 20.7344422,35.3822074 20.808,33.0315789 L20.808,32.4378947 C20.8126741,28.6368139 23.9134982,25.5578919 27.7369412,25.5578947 L34.5769412,25.5578947 C35.2786677,25.5578947 35.8475294,26.1234298 35.8475294,26.8210526 C35.8475294,27.5186755 35.2786677,28.0842105 34.5769412,28.0842105 L27.7369412,28.0842105 C25.3192916,28.0865316 23.3599818,30.0343834 23.3576471,32.4378947 L23.3576471,32.9978947 C23.2718986,36.7305226 20.2072475,39.7139394 16.4516903,39.7207963 C12.6961331,39.7276532 9.62047997,36.7554474 9.52094118,33.0231579 L9.52094118,26.9557895 C4.18728437,26.6486175 0.0156885067,22.2671222 0,16.9557895 L0,16.9557895 Z M2.54117647,16.9557895 C2.54584463,21.1000707 5.92404649,24.458517 10.0927059,24.4631579 L11.2912941,24.4631579 C15.4599535,24.458517 18.8381554,21.1000707 18.8428235,16.9557895 L18.8428235,9.90315789 L2.54117647,9.90315789 L2.54117647,16.9557895 Z" id="Shape"></path>
                    </g>
                </g>
            </g>
        </g>
    </g>
</svg>