<?xml version="1.0" encoding="UTF-8" standalone="no"?>
<svg width="62px" height="40px" viewBox="0 0 62 40" version="1.1" xmlns="http://www.w3.org/2000/svg" xmlns:xlink="http://www.w3.org/1999/xlink">
    <!-- Generator: Sketch 41.1 (35376) - http://www.bohemiancoding.com/sketch -->
    <title>ground workers</title>
    <desc>Created with Sketch.</desc>
    <defs></defs>
    <g id="DREAMSTONE-website" stroke="none" stroke-width="1" fill="none" fill-rule="evenodd">
        <g id="About" transform="translate(-454.000000, -786.000000)" fill="#4A4A4A">
            <g id="trades" transform="translate(454.000000, 786.000000)">
                <g id="ground-workers">
                    <g id="digger">
                        <path d="M45.9156322,33.3428571 L45.9156322,33.1642857 C45.8377928,32.8222832 45.7304939,32.4876951 45.5949425,32.1642857 C45.4808481,31.9135623 45.269883,31.7201618 45.0105747,31.6285714 L44.868046,31.6285714 C44.6288974,31.2647794 44.3411664,30.9355296 44.0128736,30.65 C44.0171398,30.6000914 44.0171398,30.5499086 44.0128736,30.5 C43.9861328,30.3668618 43.9328032,30.2405196 43.856092,30.1285714 C43.7732954,30.0163489 43.6691467,29.9216708 43.5496552,29.85 L43.4427586,29.7857143 C43.3810133,29.7458445 43.3167389,29.7100543 43.2503448,29.6785714 C43.0482192,29.5728186 42.8386124,29.4820981 42.6232184,29.4071429 L42.3951724,29.2857143 L42.2098851,29.2857143 L41.8963218,29.2071429 L41.5970115,29.1571429 L41.425977,29.1571429 C41.2000709,29.157388 40.9811361,29.235579 40.805977,29.3785714 L40.7062069,29.4785714 L39.6372414,29.4785714 C39.4649623,29.2576911 39.2041384,29.1243645 38.9245977,29.1142857 L37.2356322,29.1142857 C36.9560914,29.1243645 36.6952676,29.2576911 36.5229885,29.4785714 L35.4468966,29.4785714 C35.2746175,29.2576911 35.0137936,29.1243645 34.7342529,29.1142857 L33.0452874,29.1142857 C32.7657466,29.1243645 32.5049228,29.2576911 32.3326437,29.4785714 L31.2494253,29.4785714 C31.0771462,29.2576911 30.8163223,29.1243645 30.5367816,29.1142857 L28.8478161,29.1142857 C28.5682754,29.1243645 28.3074515,29.2576911 28.1351724,29.4785714 L27.0804598,29.4785714 C26.9081807,29.2576911 26.6473568,29.1243645 26.3678161,29.1142857 L24.6503448,29.1142857 C24.3708041,29.1243645 24.1099802,29.2576911 23.9377011,29.4785714 L22.8544828,29.4785714 C22.6822037,29.2576911 22.4213798,29.1243645 22.1418391,29.1142857 L20.46,29.1142857 C20.1804593,29.1243645 19.9196354,29.2576911 19.7473563,29.4785714 L18.6641379,29.4785714 C18.4918588,29.2576911 18.231035,29.1243645 17.9514943,29.1142857 L16.2625287,29.1142857 C15.982988,29.1243645 15.7221642,29.2576911 15.5498851,29.4785714 L14.4666667,29.4785714 C14.2943876,29.2576911 14.0335637,29.1243645 13.754023,29.1142857 L12.0650575,29.1142857 C11.7855167,29.1243645 11.5246929,29.2576911 11.3524138,29.4785714 L10.2691954,29.4785714 C10.0969163,29.2576911 9.83609246,29.1243645 9.55655172,29.1142857 L7.83908046,29.1142857 C7.55953972,29.1243645 7.29871588,29.2576911 7.12643678,29.4785714 L6.07885057,29.4785714 L6.00758621,29.3928571 C5.83499498,29.2167324 5.59824223,29.1187179 5.35195402,29.1214286 L5.28781609,29.1214286 L4.97425287,29.1214286 L4.64643678,29.1714286 L4.46114943,29.1714286 L4.28298851,29.2142857 C3.94351067,29.2949682 3.61376598,29.4123212 3.29954023,29.5642857 C3.17582868,29.6235645 3.06456058,29.7059956 2.97172414,29.8071429 L2.97172414,29.8071429 C2.88841963,29.9083419 2.82549463,30.0247788 2.78643678,30.15 C2.78249233,30.1999218 2.78249233,30.2500782 2.78643678,30.3 C2.41229112,30.5557931 2.07635792,30.8636397 1.78873563,31.2142857 L1.6462069,31.2142857 C1.38298984,31.2773871 1.15664262,31.4449606 1.01908046,31.6785714 C0.994670725,31.7148766 0.973221891,31.7530957 0.954942529,31.7928571 L0.869425287,31.9714286 C0.774504901,32.1604777 0.69352212,32.3562391 0.627126437,32.5571429 L0.627126437,32.6571429 L0.555862069,32.8571429 C0.501945644,33.0347919 0.46144808,33.216257 0.434712644,33.4 L0.384827586,33.7142857 L0.384827586,33.7142857 C0.366092416,33.9862476 0.452900923,34.2549504 0.627126437,34.4642857 L0.734022989,34.5642857 C0.763339517,34.998208 0.852063687,35.4260267 0.997701149,35.8357143 C0.850308132,36.1359393 0.863703147,36.4903825 1.03333333,36.7785714 L1.18298851,37.0214286 C1.22589675,37.0935457 1.27350993,37.1627439 1.32551724,37.2285714 L1.38965517,37.3142857 L1.38965517,37.3142857 C1.45703589,37.4119611 1.53083943,37.5050247 1.61057471,37.5928571 C1.830732,37.8624744 2.08462176,38.1025449 2.36597701,38.3071429 L2.36597701,38.3071429 C2.47688955,38.3916313 2.60256884,38.4546157 2.73655172,38.4928571 C2.80993982,38.5014884 2.88408317,38.5014884 2.95747126,38.4928571 L3.13563218,38.4928571 L3.27816092,38.4571429 C3.66471498,38.6584028 4.07721602,38.8050339 4.50390805,38.8928571 C4.67541869,39.171026 4.97589209,39.3431207 5.30206897,39.35 L6.99103448,39.35 C7.27057522,39.3399212 7.53139906,39.2065946 7.70367816,38.9857143 L8.75126437,38.9857143 C8.92354346,39.2065946 9.18436731,39.3399212 9.46390805,39.35 L11.1172414,39.35 C11.4091016,39.3495635 11.6847383,39.2153744 11.8655172,38.9857143 L12.9131034,38.9857143 C13.0931978,39.2162258 13.3692747,39.3506293 13.6613793,39.35 L15.3147126,39.35 C15.5942534,39.3399212 15.8550772,39.2065946 16.0273563,38.9857143 L17.0749425,38.9857143 C17.2472216,39.2065946 17.5080455,39.3399212 17.7875862,39.35 L19.4409195,39.35 C19.7204603,39.3399212 19.9812841,39.2065946 20.1535632,38.9857143 L21.3793103,38.9857143 C21.5515894,39.2065946 21.8124133,39.3399212 22.091954,39.35 L23.8022989,39.35 C24.0818396,39.3399212 24.3426634,39.2065946 24.5149425,38.9857143 L25.5625287,38.9857143 C25.7348078,39.2065946 25.9956317,39.3399212 26.2751724,39.35 L27.9285057,39.35 C28.2080465,39.3399212 28.4688703,39.2065946 28.6411494,38.9857143 L29.6887356,38.9857143 C29.8610147,39.2065946 30.1218386,39.3399212 30.4013793,39.35 L32.0547126,39.35 C32.3342534,39.3399212 32.5950772,39.2065946 32.7673563,38.9857143 L33.8149425,38.9857143 C33.9872216,39.2065946 34.2480455,39.3399212 34.5275862,39.35 L36.1809195,39.35 C36.4604603,39.3399212 36.7212841,39.2065946 36.8935632,38.9857143 L37.9411494,38.9857143 C38.1134285,39.2065946 38.3742524,39.3399212 38.6537931,39.35 L40.6206897,39.35 C40.8868931,39.3546236 41.1437467,39.2516454 41.3333333,39.0642857 L41.425977,38.9571429 C41.8589221,38.911396 42.2834342,38.8056244 42.6873563,38.6428571 L42.8227586,38.6928571 C42.9109842,38.7170606 43.002094,38.7290764 43.0935632,38.7285714 L43.236092,38.7285714 C43.3672988,38.7040857 43.4929058,38.655664 43.6066667,38.5857143 L43.6066667,38.5857143 C43.9004692,38.4106584 44.1730852,38.20213 44.4190805,37.9642857 C44.5178757,37.8752603 44.6107199,37.7798161 44.6970115,37.6785714 L44.7682759,37.6 C44.8213579,37.5432431 44.871317,37.4836311 44.917931,37.4214286 L45.1032184,37.1714286 C45.2945973,36.9038396 45.3400489,36.5581475 45.2243678,36.25 C45.3949254,35.8509867 45.5100229,35.4303934 45.5664368,35 L45.6947126,34.9 C45.8855306,34.7108273 45.9954284,34.4546621 46.0011494,34.1857143 L46.0011494,34.1857143 L46.0011494,33.8928571 C45.9866529,33.7076093 45.9580641,33.5237414 45.9156322,33.3428571 Z M43.9914943,35.6214286 C43.7432431,35.6510524 43.5185532,35.7830706 43.3714943,35.9857143 L43.236092,36.1714286 L43.1862069,36.2285714 L43.1149425,36.3071429 C43.0736743,36.3582985 43.0283963,36.4060694 42.9795402,36.45 L42.9795402,36.45 L42.9795402,36.45 C42.8424887,36.5820596 42.6920124,36.6993663 42.5305747,36.8 L42.5305747,36.8 C42.4274346,36.8629951 42.3397531,36.9484374 42.274023,37.05 C42.2092675,37.1381965 42.1609791,37.2374158 42.1314943,37.3428571 L42.1314943,37.4 C41.8830724,37.4918635 41.6247547,37.5541944 41.3618391,37.5857143 L41.3262069,37.5428571 C41.1517115,37.3540928 40.9059288,37.2477738 40.6491954,37.25 L38.9317241,37.25 C38.6521834,37.2600788 38.3913596,37.3934054 38.2190805,37.6142857 L37.1358621,37.6142857 C36.963583,37.3934054 36.7027591,37.2600788 36.4232184,37.25 L34.7342529,37.25 C34.4547121,37.2600788 34.1938883,37.3934054 34.0216092,37.6142857 L32.9455172,37.6142857 C32.7732381,37.3934054 32.5124143,37.2600788 32.2328736,37.25 L30.543908,37.25 C30.2643673,37.2600788 30.0035435,37.3934054 29.8312644,37.6142857 L28.748046,37.6142857 C28.5757669,37.3934054 28.314943,37.2600788 28.0354023,37.25 L26.3678161,37.25 C26.0882754,37.2600788 25.8274515,37.3934054 25.6551724,37.6142857 L24.5505747,37.6142857 C24.3782956,37.3934054 24.1174718,37.2600788 23.837931,37.25 L22.1489655,37.25 C21.8694248,37.2600788 21.6086009,37.3934054 21.4363218,37.6142857 L20.3531034,37.6142857 C20.1808244,37.3934054 19.9200005,37.2600788 19.6404598,37.25 L17.9586207,37.25 C17.6790799,37.2600788 17.4182561,37.3934054 17.245977,37.6142857 L16.1627586,37.6142857 C15.9904795,37.3934054 15.7296557,37.2600788 15.4501149,37.25 L13.7611494,37.25 C13.4690448,37.2493707 13.1929679,37.3837742 13.0128736,37.6142857 L11.9652874,37.6142857 C11.785193,37.3837742 11.5091161,37.2493707 11.2170115,37.25 L9.56367816,37.25 C9.28413742,37.2600788 9.02331358,37.3934054 8.85103448,37.6142857 L7.76781609,37.6142857 C7.59553699,37.3934054 7.33471315,37.2600788 7.05517241,37.25 L5.41609195,37.25 C5.16941037,37.2523853 4.93369838,37.3525369 4.76045977,37.5285714 C4.51385665,37.4672765 4.27483444,37.3786345 4.04781609,37.2642857 L4.04781609,37.2 C4.03026486,37.0944246 3.99406574,36.9928336 3.94091954,36.9 C3.88799148,36.7944053 3.81257585,36.7017473 3.72,36.6285714 L3.67011494,36.5928571 C3.63149848,36.5655347 3.59568994,36.5344291 3.56321839,36.5 L3.40643678,36.3571429 L3.32091954,36.2642857 L3.2354023,36.1714286 C3.19901602,36.133641 3.16565613,36.0930392 3.13563218,36.05 L3.13563218,36.05 L3.07149425,35.9642857 L3.02873563,35.9071429 L2.85057471,35.7142857 C2.72298645,35.4924331 2.5084221,35.3343779 2.25908046,35.2785714 C2.17639573,35.0261459 2.12377009,34.764809 2.10229885,34.5 L2.14505747,34.5 C2.3276393,34.3540595 2.44335632,34.1401341 2.46574713,33.9071429 L2.46574713,33.7071429 L2.46574713,33.7071429 C2.47919066,33.6249796 2.49823916,33.5438369 2.52275862,33.4642857 L2.5583908,33.3214286 L2.60114943,33.2142857 C2.63104433,33.126287 2.6667556,33.0403825 2.70804598,32.9571429 L2.70804598,32.9571429 L2.78643678,32.8 L2.87908046,32.6571429 L2.87908046,32.5714286 C2.92493019,32.4055042 2.92493019,32.2302101 2.87908046,32.0642857 L2.87908046,32 C3.04956623,31.7948529 3.24328184,31.6102792 3.45632184,31.45 L3.52045977,31.45 C3.6080584,31.4778782 3.69935754,31.4923271 3.79126437,31.4928571 L3.84114943,31.4928571 C3.96247369,31.4907822 4.0817934,31.4614937 4.19034483,31.4071429 C4.37476893,31.3174952 4.5683019,31.2480459 4.76758621,31.2 L4.87448276,31.2 L5.18091954,31.15 L5.38758621,31.15 C5.62102315,31.1295821 5.84015605,31.0285992 6.00758621,30.8642857 L6.07885057,30.7857143 L7.12643678,30.7857143 C7.29871588,31.0065946 7.55953972,31.1399212 7.83908046,31.15 L9.49241379,31.15 C9.77195453,31.1399212 10.0327784,31.0065946 10.2050575,30.7857143 L11.2526437,30.7857143 C11.4249228,31.0065946 11.6857466,31.1399212 11.9652874,31.15 L13.6186207,31.15 C13.8981614,31.1399212 14.1589853,31.0065946 14.3312644,30.7857143 L15.3788506,30.7857143 C15.5511297,31.0065946 15.8119535,31.1399212 16.0914943,31.15 L17.7448276,31.15 C18.0243683,31.1399212 18.2851922,31.0065946 18.4574713,30.7857143 L19.5050575,30.7857143 C19.6773366,31.0065946 19.9381604,31.1399212 20.2177011,31.15 L22.091954,31.15 C22.3714948,31.1399212 22.6323186,31.0065946 22.8045977,30.7857143 L23.8521839,30.7857143 C24.024463,31.0065946 24.2852868,31.1399212 24.5648276,31.15 L26.2181609,31.15 C26.4977017,31.1399212 26.7585255,31.0065946 26.9308046,30.7857143 L27.9783908,30.7857143 C28.1506699,31.0065946 28.4114937,31.1399212 28.6910345,31.15 L30.5011494,31.15 C30.7806902,31.1399212 31.041514,31.0065946 31.2137931,30.7857143 L32.2613793,30.7857143 C32.4336584,31.0065946 32.6944822,31.1399212 32.974023,31.15 L34.6273563,31.15 C34.9068971,31.1399212 35.1677209,31.0065946 35.34,30.7857143 L36.4873563,30.7857143 C36.6596354,31.0065946 36.9204593,31.1399212 37.2,31.15 L38.8533333,31.15 C39.1328741,31.1399212 39.3936979,31.0065946 39.565977,30.7857143 L40.5921839,30.7857143 L40.6349425,30.8428571 C40.7737854,31.0182763 40.9711937,31.1375016 41.1908046,31.1785714 L41.4045977,31.1785714 L41.703908,31.2571429 L41.817931,31.3 C42.0071656,31.3659491 42.188752,31.4521619 42.3595402,31.5571429 C42.4593229,31.6184619 42.5711464,31.6574467 42.6873563,31.6714286 L42.8298851,31.6714286 L43.0222989,31.6714286 L43.0793103,31.6714286 C43.2750247,31.850847 43.4495741,32.0521611 43.5995402,32.2714286 L43.5995402,32.3285714 C43.5092614,32.5432349 43.5092614,32.7853365 43.5995402,33 C43.6750914,33.185704 43.7370184,33.3766876 43.7848276,33.5714286 L43.7848276,33.7285714 C43.790218,33.8094337 43.790218,33.8905663 43.7848276,33.9714286 L43.7848276,33.9714286 L43.7848276,34.1928571 C43.7850489,34.4237464 43.8774321,34.644948 44.0413793,34.8071429 L44.0841379,34.85 C44.0832142,35.1098741 44.0521239,35.3687578 43.9914943,35.6214286 Z" id="Shape"></path>
                        <path d="M40.3783908,32.0428571 L5.58712644,32.0428571 C4.38866853,32.0428571 3.41712644,33.0166378 3.41712644,34.2178571 C3.41712644,35.4190765 4.38866853,36.3928571 5.58712644,36.3928571 L40.3783908,36.3928571 C41.5768487,36.3928571 42.5483908,35.4190765 42.5483908,34.2178571 C42.5483908,33.0166378 41.5768487,32.0428571 40.3783908,32.0428571 Z M5.55862069,35.1785714 C5.16950012,35.1785714 4.81869486,34.9436308 4.66978486,34.5833019 C4.52087487,34.222973 4.6031854,33.8082165 4.8783352,33.5324327 C5.153485,33.256649 5.56728801,33.1741488 5.92678854,33.3234019 C6.28628908,33.472655 6.52068966,33.8242685 6.52068966,34.2142857 C6.52068966,34.746846 6.08995671,35.1785714 5.55862069,35.1785714 L5.55862069,35.1785714 Z M40.5921839,35.1785714 C40.2030633,35.1785714 39.8522581,34.9436308 39.7033481,34.5833019 C39.5544381,34.222973 39.6367486,33.8082165 39.9118984,33.5324327 C40.1870482,33.256649 40.6008512,33.1741488 40.9603518,33.3234019 C41.3198523,33.472655 41.5542529,33.8242685 41.5542529,34.2142857 C41.5544814,34.7358848 41.1408612,35.1631167 40.6206897,35.1785714 L40.5921839,35.1785714 Z" id="Shape"></path>
                        <path d="M61.3443678,26 C61.3443984,25.0834864 60.9173751,24.2195458 60.1898851,23.6642857 L57.4390805,5.66428571 C58.2459072,4.5539745 58.3333801,3.07427659 57.6630124,1.87623756 C56.9926448,0.678198526 55.6873259,-0.0185614138 54.3213771,0.0925219804 C52.9554284,0.203605375 51.7792506,1.10216869 51.3103448,2.39285714 L35.0691954,11.1714286 C33.7860401,10.3707153 32.1856442,10.2756945 30.8171483,10.9189706 C29.4486523,11.5622467 28.4982135,12.8563143 28.291954,14.3571429 L26.0043678,14.2857143 L24.1514943,7.05714286 C23.7759576,5.80324404 22.648719,4.92575722 21.3436782,4.87142857 L12.8275862,4.87142857 C11.5408838,4.91284656 10.4490266,5.83023201 10.1836782,7.09285714 L7.98873563,19.5071429 L4.27586207,19.5071429 C2.95736158,19.5071429 1.88850575,20.5784615 1.88850575,21.9 L1.88850575,23.7857143 C1.88850575,25.1072528 2.95736158,26.1785714 4.27586207,26.1785714 L5.25931034,26.1785714 C5.2255874,26.3382518 5.20886542,26.5010681 5.20942529,26.6642857 L5.20942529,27.3785714 C5.20942529,27.3785714 5.20942529,27.3785714 5.20942529,27.4214286 C5.20942529,27.8553666 5.56039287,28.2071429 5.99333333,28.2071429 L6.36390805,28.2071429 C6.78572447,28.1956241 7.12275719,27.8515006 7.12643678,27.4285714 C7.1288524,27.3905147 7.1288524,27.3523425 7.12643678,27.3142857 L7.12643678,26.6714286 C7.12643678,26.4584045 7.29872996,26.2857143 7.51126437,26.2857143 L37.3211494,26.2857143 C37.5336838,26.2857143 37.705977,26.4584045 37.705977,26.6714286 L37.705977,27.3857143 L37.705977,27.3857143 C37.6942819,27.6001845 37.7706961,27.8101038 37.9174414,27.9666329 C38.0641867,28.123162 38.2684682,28.2126532 38.4827586,28.2142857 L38.8462069,28.2142857 C39.2791474,28.2142857 39.6301149,27.8625094 39.6301149,27.4285714 C39.6336844,27.3857889 39.6336844,27.3427825 39.6301149,27.3 L39.6301149,26.6714286 C39.6301149,25.4011736 38.6027371,24.3714286 37.3354023,24.3714286 L36.7296552,24.3714286 L36.7296552,23.2285714 L38.1193103,23.2285714 C38.8435017,23.2285714 39.4305747,22.6401457 39.4305747,21.9142857 L39.4305747,17.9 C39.4305747,17.17414 38.8435017,16.5857143 38.1193103,16.5857143 L36.8793103,16.5857143 C37.0745173,16.0798012 37.1759498,15.5424227 37.1786207,15 L37.1786207,14.8571429 L52.7356322,6.42857143 C52.9369965,6.56482101 53.1519444,6.67972406 53.3770115,6.77142857 L56.0209195,24.2857143 C55.5573923,24.926506 55.3716533,25.7277475 55.5058244,26.5077333 C55.6399956,27.2877192 56.082708,27.9803573 56.7335632,28.4285714 L53.7475862,31.3571429 L53.205977,29.9285714 C53.1183332,29.5372325 52.8544454,29.208825 52.4916533,29.0395982 C52.1288613,28.8703713 51.7082544,28.8794914 51.3531034,29.0642857 C50.4765517,29.4142857 50.6404598,30.3214286 50.9967816,31.2071429 L52.0229885,33.7642857 C52.0804533,33.9867456 52.1769789,34.1971726 52.308046,34.3857143 C52.4698273,34.6402909 52.6960571,34.8473245 52.9636782,34.9857143 C53.2552606,35.1499356 53.5841584,35.2360396 53.9186207,35.2357143 L57.6742529,35.2357143 C58.756604,35.2357143 59.634023,34.3562736 59.634023,33.2714286 L59.634023,29.5142857 C59.6356073,29.2467294 59.5822399,28.9817089 59.4772414,28.7357143 C60.6028244,28.2968617 61.3442489,27.2105263 61.3443678,26 Z M10.7822989,23.8 C10.7822989,24.0603628 10.5717183,24.2714286 10.311954,24.2714286 L4.27586207,24.2714286 C4.01609779,24.2714286 3.80551724,24.0603628 3.80551724,23.8 L3.80551724,21.8928571 C3.80941128,21.635288 4.01885558,21.4285419 4.27586207,21.4285714 L10.3404598,21.4285714 C10.600224,21.4285714 10.8108046,21.6396372 10.8108046,21.9 L10.7822989,23.8 Z M16.3195402,18.0071429 L15.7993103,14.9642857 C15.6594366,14.403377 15.150231,14.0146582 14.5735632,14.0285714 L11.2526437,14.0285714 L12.4213793,7.49285714 C12.4932962,7.31790154 12.6442162,7.18786439 12.8275862,7.14285714 L21.3365517,7.14285714 C21.6160086,7.1925134 21.8531922,7.37682102 21.9708046,7.63571429 L24.636092,18.0214286 L16.3195402,18.0071429 Z M32.7103448,16.8928571 C31.9324105,16.8927709 31.2316627,16.4214781 30.9366938,15.6999756 C30.6417248,14.9784731 30.8110289,14.1498394 31.3652165,13.6026346 C31.9194041,13.0554298 32.7485763,12.898168 33.4639206,13.2045918 C34.179265,13.5110157 34.6389241,14.2203594 34.6273563,15 C34.6118251,16.0472264 33.7623989,16.8890794 32.7174713,16.8928571 L32.7103448,16.8928571 Z M54.723908,5 C54.0763811,5.00869299 53.4877749,4.62442543 53.2339443,4.02728736 C52.9801137,3.43014929 53.1113605,2.73847589 53.5661749,2.27642541 C54.0209892,1.81437492 54.7092403,1.67351214 55.3083738,1.91985354 C55.9075072,2.16619493 56.2987925,2.75092289 56.2988506,3.4 C56.2989289,4.27535442 55.5971718,4.98827651 54.723908,5 L54.723908,5 Z M58.4367816,27.0857143 C57.8385366,27.0857143 57.3535632,26.5996234 57.3535632,26 C57.3535632,25.4003766 57.8385366,24.9142857 58.4367816,24.9142857 C59.0350266,24.9142857 59.52,25.4003766 59.52,26 C59.52,26.5996234 59.0350266,27.0857143 58.4367816,27.0857143 L58.4367816,27.0857143 Z" id="Shape"></path>
                    </g>
                </g>
            </g>
        </g>
    </g>
</svg>