<?xml version="1.0" encoding="UTF-8" standalone="no"?>
<svg width="27px" height="40px" viewBox="0 0 27 40" version="1.1" xmlns="http://www.w3.org/2000/svg" xmlns:xlink="http://www.w3.org/1999/xlink">
    <!-- Generator: Sketch 41.1 (35376) - http://www.bohemiancoding.com/sketch -->
    <title>joiners</title>
    <desc>Created with Sketch.</desc>
    <defs></defs>
    <g id="DREAMSTONE-website" stroke="none" stroke-width="1" fill="none" fill-rule="evenodd">
        <g id="About" transform="translate(-754.000000, -786.000000)" fill="#4A4A4A">
            <g id="trades" transform="translate(454.000000, 786.000000)">
                <g id="joiners" transform="translate(300.000000, 0.000000)">
                    <g id="Group">
                        <path d="M22.5,26.1333333 L14.625,26.1333333 C14.31,26.1333333 14.04,26.4 14.04,26.7111111 L14.04,35.6 C14.04,35.9111111 14.31,36.1777778 14.625,36.1777778 L22.5,36.1777778 C22.815,36.1777778 23.085,35.9111111 23.085,35.6 L23.085,26.6666667 C23.085,26.3555556 22.815,26.1333333 22.5,26.1333333 Z M21.96,35.0222222 L15.21,35.0222222 L15.21,27.2444444 L21.96,27.2444444 L21.96,35.0222222 Z" id="Shape"></path>
                        <path d="M22.5,15.0222222 L14.625,15.0222222 C14.31,15.0222222 14.04,15.2888889 14.04,15.6 L14.04,24.4888889 C14.04,24.8 14.31,25.0666667 14.625,25.0666667 L22.5,25.0666667 C22.815,25.0666667 23.085,24.8 23.085,24.4888889 L23.085,15.5555556 C23.085,15.2444444 22.815,15.0222222 22.5,15.0222222 Z M21.96,23.9111111 L15.21,23.9111111 L15.21,16.1333333 L21.96,16.1333333 L21.96,23.9111111 Z" id="Shape"></path>
                        <path d="M12.375,26.1333333 L4.5,26.1333333 C4.185,26.1333333 3.915,26.4 3.915,26.7111111 L3.915,35.6 C3.915,35.9111111 4.185,36.1777778 4.5,36.1777778 L12.375,36.1777778 C12.69,36.1777778 12.96,35.9111111 12.96,35.6 L12.96,26.6666667 C12.96,26.3555556 12.69,26.1333333 12.375,26.1333333 Z M11.835,35.0222222 L5.085,35.0222222 L5.085,27.2444444 L11.835,27.2444444 L11.835,35.0222222 Z" id="Shape"></path>
                        <path d="M12.375,15.0222222 L4.5,15.0222222 C4.185,15.0222222 3.915,15.2888889 3.915,15.6 L3.915,24.4888889 C3.915,24.8 4.185,25.0666667 4.5,25.0666667 L12.375,25.0666667 C12.69,25.0666667 12.96,24.8 12.96,24.4888889 L12.96,15.5555556 C12.96,15.2444444 12.69,15.0222222 12.375,15.0222222 Z M11.835,23.9111111 L5.085,23.9111111 L5.085,16.1333333 L11.835,16.1333333 L11.835,23.9111111 Z" id="Shape"></path>
                        <path d="M13.5,0 C6.075,0 0,6 0,13.3333333 L0,38.8888889 C0,39.5111111 0.495,40 1.125,40 L25.875,40 C26.505,40 27,39.5111111 27,38.8888889 L27,13.3333333 C27,6 20.925,0 13.5,0 Z M24.75,37.7777778 L2.25,37.7777778 L2.25,13.3333333 C2.25,7.2 7.29,2.22222222 13.5,2.22222222 C19.71,2.22222222 24.75,7.2 24.75,13.3333333 L24.75,37.7777778 Z" id="Shape"></path>
                        <path d="M12.285,5.02222222 C7.965,5.55555556 4.545,8.93333333 4.005,13.2 C4.005,13.3777778 4.05,13.5111111 4.14,13.6444444 C4.23,13.7777778 4.41,13.8222222 4.545,13.8222222 L12.33,13.8222222 C12.645,13.8222222 12.915,13.5555556 12.915,13.2444444 L12.915,5.55555556 C12.915,5.37777778 12.825,5.24444444 12.735,5.15555556 C12.645,5.06666667 12.465,4.97777778 12.285,5.02222222 Z M11.835,12.7111111 L5.22,12.7111111 C5.895,9.42222222 8.46,6.88888889 11.79,6.22222222 L11.79,12.7111111 L11.835,12.7111111 Z" id="Shape"></path>
                        <path d="M14.715,5.02222222 C14.535,5.02222222 14.4,5.06666667 14.265,5.15555556 C14.13,5.24444444 14.085,5.42222222 14.085,5.55555556 L14.085,13.2444444 C14.085,13.5555556 14.355,13.8222222 14.67,13.8222222 L22.455,13.8222222 C22.635,13.8222222 22.77,13.7333333 22.86,13.6444444 C22.95,13.5555556 22.995,13.3777778 22.995,13.2 C22.455,8.88888889 19.035,5.55555556 14.715,5.02222222 Z M15.21,12.7111111 L15.21,6.22222222 C18.54,6.88888889 21.105,9.42222222 21.78,12.7111111 L15.21,12.7111111 Z" id="Shape"></path>
                    </g>
                </g>
            </g>
        </g>
    </g>
</svg>