<?xml version="1.0" encoding="UTF-8" standalone="no"?>
<svg width="30px" height="40px" viewBox="0 0 30 40" version="1.1" xmlns="http://www.w3.org/2000/svg" xmlns:xlink="http://www.w3.org/1999/xlink">
    <!-- Generator: Sketch 41.1 (35376) - http://www.bohemiancoding.com/sketch -->
    <title>MEP</title>
    <desc>Created with Sketch.</desc>
    <defs></defs>
    <g id="DREAMSTONE-website" stroke="none" stroke-width="1" fill="none" fill-rule="evenodd">
        <g id="About" transform="translate(-800.000000, -608.000000)">
            <g id="engineer" transform="translate(380.000000, 578.000000)">
                <g id="MEP" transform="translate(420.766471, 30.000000)">
                    <g id="Group">
                        <g>
                            <path d="M26.771854,23.5444444 L2.46254099,23.5444444 C1.56769443,23.5444444 0.841859218,24.2506667 0.841859218,25.1213333 L2.86816822,36.5542222 C2.86816822,37.4244444 3.59308986,38.1306667 4.48839321,38.1306667 L24.7469154,38.1306667 C25.6417619,38.1306667 26.3675971,37.4244444 26.3675971,36.5542222 L28.3934494,25.1213333 C28.3925358,24.2502222 27.6667006,23.5444444 26.771854,23.5444444 Z M14.6171975,31.5755556 C14.0859537,31.5755556 13.6552032,31.1573333 13.6552032,30.64 C13.6552032,30.124 14.0859537,29.7053333 14.6171975,29.7053333 C15.1479845,29.7053333 15.5782782,30.1235556 15.5782782,30.64 C15.5782782,31.1573333 15.1479845,31.5755556 14.6171975,31.5755556 Z" id="Shape"></path>
                            <path d="M14.6171975,15.6702222 C11.8929173,15.6702222 9.6418689,12.7973333 9.28009326,9.06666667 L8.53918406,9.06666667 C8.95120632,13.3151111 11.5146973,16.5884444 14.6171975,16.5884444 C17.7196977,16.5884444 20.2831887,13.3151111 20.6952109,9.06666667 L19.9547585,9.06666667 C19.5929829,12.7973333 17.3414777,15.6702222 14.6171975,15.6702222 Z" id="Shape" fill="#4A4A4A"></path>
                            <path d="M26.771854,22.9208889 C26.8326067,22.9208889 26.8919891,22.9253333 26.9513715,22.9297778 C26.5996451,19.2591111 23.6816871,16.3128889 19.9593264,15.8093333 C19.9456228,15.8075556 19.9305488,15.8062222 19.9163884,15.804 C19.8031051,15.7897778 19.6889082,15.7764444 19.573341,15.7662222 C19.573341,15.7777778 19.5696867,15.7893333 19.5692299,15.8004444 C19.5678596,15.8333333 19.5614646,15.8648889 19.5578103,15.8986667 C19.536798,16.084 19.4796996,16.2648889 19.3906261,16.4386667 C18.7908642,17.9084444 16.8495176,20.6937778 15.7066355,22.2737778 L15.4709332,18.9893333 C15.804388,18.8226667 16.0917073,18.5471111 16.2762494,18.2271111 C16.408261,17.9968889 16.4895691,17.7462222 16.4895691,17.4906667 C16.4895691,17.4906667 15.636747,17.8582222 14.766567,17.8582222 C14.7167772,17.8582222 14.6674441,17.8564444 14.6176543,17.8537778 C14.5683212,17.8564444 14.5185314,17.8582222 14.4687416,17.8582222 C13.5985615,17.8582222 12.7457394,17.4906667 12.7457394,17.4906667 C12.7457394,17.7462222 12.8265908,17.9973333 12.9590592,18.2271111 C13.1431445,18.5471111 13.430007,18.8226667 13.7639186,18.9893333 L13.5282163,22.2737778 C12.3853342,20.6933333 10.4444444,17.908 9.84468251,16.4386667 C9.75515218,16.2648889 9.69851054,16.0844444 9.67704153,15.8986667 C9.67293044,15.8648889 9.66699221,15.8333333 9.66562185,15.8004444 C9.66516506,15.7893333 9.66196755,15.7777778 9.66151076,15.7662222 C9.54640033,15.7764444 9.43220347,15.7897778 9.3184634,15.804 C9.30384621,15.8062222 9.2896858,15.8075556 9.27552539,15.8093333 C5.55362147,16.3128889 2.63520664,19.2591111 2.28348032,22.9297778 C2.34286269,22.9253333 2.40224505,22.9208889 2.46254099,22.9208889 L26.771854,22.9208889 Z" id="Shape" fill="#4A4A4A"></path>
                            <path d="M8.25003763,8.18311111 L8.45741911,8.18311111 L9.57380757,8.18311111 L10.0031878,8.18311111 L19.2325776,8.18311111 L19.6619578,8.18311111 L20.7778895,8.18311111 L20.9843574,8.18311111 C21.4804285,8.18311111 21.8828582,7.792 21.8828582,7.30933333 C21.8828582,6.82711111 21.4804285,6.43555556 20.9843574,6.43555556 L20.7399761,6.43555556 C20.7399761,4.11377778 19.3737249,2.104 17.3812182,1.12088889 L17.1994168,2.128 L16.8741841,3.92 C16.8339869,4.14177778 16.6361979,4.29777778 16.4128289,4.29777778 C16.3854216,4.29777778 16.3580144,4.29555556 16.3306071,4.29022222 C16.0748062,4.24622222 15.9044245,4.00977778 15.9501032,3.76133333 L16.3077677,1.78666667 L16.5288529,0.564444444 C16.3118788,0.225333333 15.9263502,0 15.4855504,0 L13.747931,0 C13.307588,0 12.9225162,0.225333333 12.7050854,0.564 L12.9266272,1.78622222 L13.2842918,3.76088889 C13.3295138,4.00977778 13.159132,4.24622222 12.9037879,4.28977778 C12.8763806,4.29466667 12.8489734,4.29733333 12.8220229,4.29733333 C12.5981971,4.29733333 12.3999514,4.14133333 12.3602108,3.91955556 L12.035435,2.128 L11.8531768,1.12133333 C9.86067007,2.10355556 8.49533247,4.11377778 8.49533247,6.43555556 L8.25003763,6.43555556 C7.75442327,6.43555556 7.35245034,6.82711111 7.35245034,7.30933333 C7.35245034,7.792 7.75396649,8.18311111 8.25003763,8.18311111 Z" id="Shape" fill="#4A4A4A"></path>
                            <path d="M25.6376508,39.0648889 L3.59674416,39.0648889 C3.33135067,39.0648889 3.11620379,39.2742222 3.11620379,39.5324444 C3.11620379,39.7906667 3.33089388,40 3.59674416,40 L25.6376508,40 C25.9030443,40 26.118648,39.7906667 26.118648,39.5324444 C26.118648,39.2742222 25.9030443,39.0648889 25.6376508,39.0648889 Z" id="Shape" fill="#4A4A4A"></path>
                            <path d="M26.9513715,22.9297778 C26.8919891,22.9253333 26.8326067,22.9208889 26.771854,22.9208889 L2.46254099,22.9208889 C2.40224505,22.9208889 2.34286269,22.9253333 2.28348032,22.9297778 C1.12004276,23.0191111 0.200986466,23.9666667 0.200986466,25.1213333 L0.200986466,25.1746667 L0.210579001,25.2271111 L2.22820904,36.6115556 C2.25927059,37.7982222 3.2610054,38.7537778 4.48793642,38.7537778 L24.7464586,38.7537778 C25.9733896,38.7537778 26.9755812,37.7982222 27.0066427,36.6115556 L29.0242728,25.2271111 L29.0338653,25.1746667 L29.0338653,25.1213333 C29.0338653,23.9671111 28.114809,23.0191111 26.9513715,22.9297778 Z M26.3671403,36.5537778 C26.3671403,37.424 25.6413051,38.1302222 24.7464586,38.1302222 L4.48793642,38.1302222 C3.59308986,38.1302222 2.86771143,37.424 2.86771143,36.5537778 L0.841402431,25.1208889 C0.841402431,24.2502222 1.56723764,23.544 2.4620842,23.544 L26.771854,23.544 C27.6667006,23.544 28.3925358,24.2502222 28.3925358,25.1208889 L26.3671403,36.5537778 Z" id="Shape" fill="#4A4A4A"></path>
                            <ellipse id="Oval" fill="#4A4A4A" cx="14.6171975" cy="30.6404444" rx="0.961080735" ry="0.935111111"></ellipse>
                        </g>
                    </g>
                </g>
            </g>
        </g>
    </g>
</svg>