<?xml version="1.0" encoding="UTF-8" standalone="no"?>
<svg width="38px" height="40px" viewBox="0 0 38 40" version="1.1" xmlns="http://www.w3.org/2000/svg" xmlns:xlink="http://www.w3.org/1999/xlink">
    <!-- Generator: Sketch 41.1 (35376) - http://www.bohemiancoding.com/sketch -->
    <title>plumbers</title>
    <desc>Created with Sketch.</desc>
    <defs></defs>
    <g id="DREAMSTONE-website" stroke="none" stroke-width="1" fill="none" fill-rule="evenodd">
        <g id="About" transform="translate(-913.000000, -786.000000)" fill="#4A4A4A">
            <g id="trades" transform="translate(454.000000, 786.000000)">
                <g id="plumbers" transform="translate(459.000000, 0.000000)">
                    <g id="Group">
                        <path d="M30.793439,12.6744186 C30.5946341,9.84930233 28.6033415,7.52790698 25.9512195,6.84139535 L25.9512195,3.60465116 L31.7439024,3.60465116 L31.7439024,0.348837209 L25.9512195,0.348837209 L22.7073171,0.348837209 L16.9146341,0.348837209 L16.9146341,3.60465116 L22.7073171,3.60465116 L22.7073171,6.84139535 C20.0551951,7.52790698 18.0639024,9.84930233 17.8650976,12.6744186 L15.2926829,12.6744186 C13.6072439,12.6734884 11.9825122,13.0190698 10.5116341,13.6446512 C8.30253659,14.5832558 6.43543902,16.1409302 5.11192683,18.1060465 C3.91029268,19.8874419 3.16558537,22.024186 3.03860976,24.3023256 L0.231707317,24.3023256 L0.231707317,29.8837209 L13.2073171,29.8837209 L13.2073171,24.3023256 L10.4815122,24.3023256 C10.5412927,23.8809302 10.6483415,23.4786047 10.8077561,23.1004651 C11.1738537,22.2283721 11.7962195,21.4753488 12.5747561,20.947907 C13.3560732,20.4209302 14.2722439,20.1176744 15.2926829,20.1162791 L37.7682927,20.1162791 L37.7682927,12.6744186 L30.793439,12.6744186 Z" id="Shape"></path>
                        <path d="M3.47560976,36.3953488 C3.47560976,38.1934884 4.92841463,39.6511628 6.7195122,39.6511628 C8.51060976,39.6511628 9.96341463,38.1934884 9.96341463,36.3953488 C9.96341463,34.5972093 6.7195122,31.2790698 6.7195122,31.2790698 C6.7195122,31.2790698 3.47560976,34.5972093 3.47560976,36.3953488 Z" id="Shape"></path>
                    </g>
                </g>
            </g>
        </g>
    </g>
</svg>