<?xml version="1.0" encoding="UTF-8" standalone="no"?>
<svg width="58px" height="40px" viewBox="0 0 58 40" version="1.1" xmlns="http://www.w3.org/2000/svg" xmlns:xlink="http://www.w3.org/1999/xlink">
    <!-- Generator: Sketch 41.1 (35376) - http://www.bohemiancoding.com/sketch -->
    <title>roof</title>
    <desc>Created with Sketch.</desc>
    <defs></defs>
    <g id="DREAMSTONE-website" stroke="none" stroke-width="1" fill="none" fill-rule="evenodd">
        <g id="About" transform="translate(-650.000000, -786.000000)" fill="#4A4A4A">
            <g id="trades" transform="translate(454.000000, 786.000000)">
                <g id="roof" transform="translate(196.000000, 0.000000)">
                    <g id="Group">
                        <path d="M57.9997734,35.0391103 C57.9979609,35.0284886 57.9979609,35.0161719 57.9962617,35.0055503 C57.9962617,34.9896177 57.9962617,34.9754932 57.9944492,34.9596737 C57.9926367,34.949052 57.9926367,34.9384303 57.9909375,34.9279216 C57.989125,34.9102941 57.9856133,34.8943616 57.9839141,34.8767342 C57.9821016,34.8679204 57.9821016,34.8591067 57.9785898,34.850293 C57.9750781,34.8255467 57.9697539,34.7991055 57.9644297,34.7743593 L49.5036797,1.02657395 C49.3709141,0.489840185 48.8876562,0.112883586 48.3318984,0.112883586 L9.66628906,0.112883586 C9.11223047,0.112883586 8.62908594,0.489840185 8.49450781,1.02657395 L0.0355703125,34.7742463 C0.028546875,34.7989925 0.024921875,34.8254337 0.0195976562,34.85018 C0.0177851562,34.8589937 0.0177851562,34.8678074 0.0142734375,34.8784291 C0.0124609375,34.8943616 0.0107617187,34.9101812 0.00725,34.9279216 C0.00725,34.9385433 0.0054375,34.949165 0.00373828125,34.9596737 C0.00373828125,34.9756062 0.00192578125,34.9897307 0.00192578125,35.0055503 C0.00011328125,35.0161719 0.00011328125,35.0284886 0.00011328125,35.0391103 L0.00011328125,35.0655515 L0.00011328125,38.6814421 C0.00011328125,39.0716193 0.189519531,39.4388582 0.508066406,39.6648513 C0.828425781,39.8908445 1.23737109,39.9491507 1.60723437,39.8202216 L8.12792969,37.5479734 L14.7087773,39.8202216 C14.9636602,39.9102799 15.2433516,39.908472 15.5017461,39.8202216 L22.0507617,37.5479734 L28.6032891,39.8202216 C28.8581719,39.9102799 29.1395625,39.9102799 29.3962578,39.8202216 L35.9470859,37.5479734 L42.4978008,39.8202216 C42.7561953,39.9102799 43.0358867,39.9102799 43.2907695,39.8202216 L49.8432969,37.5479734 L56.394125,39.8202216 C56.5233789,39.8644033 56.6578437,39.8873416 56.7906094,39.8873416 C57.0384687,39.8873416 57.2844023,39.8114079 57.4897812,39.6648513 C57.8101406,39.4388582 57.9995469,39.0716193 57.9995469,38.6814421 L57.9995469,35.0655515 C57.9997734,35.0567377 57.9997734,35.047924 57.9997734,35.0391103 Z M22.4474727,31.5167808 C22.1925898,31.4285305 21.9128984,31.4285305 21.6545039,31.5167808 L16.5445,33.2894712 L17.7216055,23.903749 L22.7838047,22.1330926 L27.7911758,23.8701891 L27.7911758,33.3707157 L22.4474727,31.5167808 Z M8.52282812,31.5167808 C8.39357422,31.4725991 8.26092187,31.4496608 8.12815625,31.4496608 C7.99357812,31.4496608 7.85730078,31.4725991 7.72816016,31.5167808 L2.92435547,33.1922941 L5.24299609,23.9335801 L10.3548125,22.1328666 L15.293082,23.8329002 L14.0894687,33.4394176 L8.52282812,31.5167808 Z M7.96174609,13.093366 L12.5141797,11.5352561 L16.652457,12.9821774 L15.6010937,21.3898011 L10.7441602,19.7177906 C10.4857656,19.6286363 10.2060742,19.6295403 9.94767969,19.7203896 L5.94749219,21.1302479 L7.96174609,13.093366 Z M27.7910625,2.52377867 L27.7910625,10.4706023 L23.9023437,9.12176211 C23.6474609,9.03260781 23.3677695,9.03260781 23.1111875,9.12085814 L19.4135742,10.3946686 L20.3994609,2.52377867 L27.7910625,2.52377867 L27.7910625,2.52377867 Z M37.5987266,2.52377867 L38.5864258,10.3946686 L34.8871133,9.12085814 C34.6322305,9.03260781 34.3525391,9.03260781 34.0976562,9.12176211 L30.207125,10.4706023 L30.207125,2.52377867 L37.5987266,2.52377867 L37.5987266,2.52377867 Z M52.0525078,21.1301349 L48.0505078,19.7202766 C47.7938125,19.6293143 47.5106094,19.6285233 47.2522148,19.7176776 L42.3989062,21.392287 L41.3457305,12.9820644 L45.4858203,11.5351431 L50.0382539,13.093253 L52.0525078,21.1301349 Z M19.0790547,13.060597 L23.5040469,11.5351431 L27.7909492,13.0226301 L27.7909492,21.3181612 L23.1800625,19.7185816 C22.921668,19.6294273 22.6419766,19.6294273 22.383582,19.7194856 L18.0541992,21.2326228 L19.0790547,13.060597 Z M30.207125,13.0227431 L34.4941406,11.5352561 L38.9191328,13.06071 L39.943875,21.2299109 L35.6144922,19.7194856 C35.3577969,19.6294273 35.0764062,19.6294273 34.8197109,19.7185816 L30.2070117,21.3181612 L30.2070117,13.0227431 L30.207125,13.0227431 Z M30.207125,23.8700761 L35.2144961,22.1329796 L40.2783945,23.9001331 L41.4536875,33.2894712 L36.3454961,31.5167808 C36.0871016,31.4285305 35.8074102,31.4285305 35.5507148,31.5167808 L30.2070117,33.3706027 L30.2070117,23.8700761 L30.207125,23.8700761 Z M43.9087187,33.4377227 L42.706918,23.8365161 L47.6451875,22.1329796 L52.7551914,23.9336931 L55.0756445,33.19591 L50.2398945,31.5168938 C49.9831992,31.4286434 49.7036211,31.4286434 49.4469258,31.5168938 L43.9087187,33.4377227 Z M49.3408945,10.3063053 L45.8752812,9.11984117 C45.6168867,9.03159084 45.3390078,9.03249481 45.0823125,9.12244009 L41.0395312,10.5348974 L40.0341602,2.52366567 L47.3903047,2.52366567 L49.3408945,10.3063053 Z M10.6096953,2.52377867 L17.9640273,2.52377867 L16.9604687,10.5350104 L12.9176875,9.12255309 C12.6609922,9.03249481 12.3814141,9.03159084 12.1247187,9.11995417 L8.65910547,10.3064183 L10.6096953,2.52377867 Z M50.2400078,35.1326714 C49.9833125,35.0444211 49.7037344,35.0444211 49.4470391,35.1326714 L42.8945117,37.4049197 L36.3454961,35.1326714 C36.0871016,35.0444211 35.8074102,35.0444211 35.5507148,35.1326714 L29,37.4049197 L22.4474727,35.1326714 C22.1925898,35.0444211 21.9128984,35.0444211 21.6545039,35.1326714 L15.1019766,37.4067276 L8.52282812,35.1326714 C8.39357422,35.0884898 8.26092187,35.0655515 8.12815625,35.0655515 C7.99357812,35.0655515 7.85730078,35.0884898 7.72816016,35.1326714 L2.41640234,36.9847984 L2.41640234,35.9219525 L8.12815625,33.9321957 L14.7090039,36.204444 L14.7090039,36.206252 C14.7231641,36.2097548 14.7338125,36.2132577 14.7461602,36.2168736 C14.7691562,36.2238794 14.7939648,36.2309982 14.8187734,36.236309 C14.8329336,36.2398119 14.8470937,36.2433148 14.8612539,36.2451228 C14.88425,36.2504336 14.9090586,36.2557445 14.9320547,36.2592473 C14.9390781,36.2592473 14.9462148,36.2610553 14.9533516,36.2627502 C14.9656992,36.2645582 14.9781602,36.2645582 14.9886953,36.2662531 C14.9975312,36.2662531 15.004668,36.2662531 15.0135039,36.2680611 C15.0436367,36.269869 15.0736562,36.271564 15.1054883,36.271564 C15.1249727,36.271564 15.144457,36.269756 15.1656406,36.2680611 C15.1798008,36.2680611 15.1939609,36.2680611 15.2081211,36.2662531 C15.229418,36.2644452 15.2506016,36.2609423 15.2735977,36.2592473 C15.2859453,36.2574394 15.2984062,36.2557445 15.3107539,36.2539365 C15.3320508,36.2504336 15.3532344,36.2451228 15.374418,36.2398119 C15.3885781,36.236309 15.4009258,36.2345011 15.4133867,36.2309982 C15.4346836,36.2256874 15.4523555,36.2186816 15.4735391,36.2133707 C15.482375,36.2098678 15.4912109,36.2080599 15.5018594,36.204557 L22.050875,33.9323087 L28.6034023,36.204557 C28.6069141,36.2063649 28.6140508,36.2080599 28.619375,36.2098678 C28.6353477,36.2151787 28.6530195,36.2204895 28.6706914,36.2258004 C28.6901758,36.2311112 28.7096602,36.2346141 28.727332,36.2399249 C28.7450039,36.2434278 28.7609766,36.2469307 28.7769492,36.2505466 C28.7999453,36.2540495 28.8229414,36.2575524 28.8442383,36.2611683 C28.8583984,36.2629762 28.8725586,36.2646712 28.8867187,36.2664791 C28.9256875,36.269982 28.9610312,36.27179 29,36.27179 L29,36.27179 L29,36.27179 C29.0371562,36.27179 29.0743125,36.269982 29.1114687,36.2664791 C29.1274414,36.2646712 29.1397891,36.2629762 29.1539492,36.2611683 C29.1769453,36.2576654 29.1982422,36.2541625 29.2212383,36.2505466 C29.2372109,36.2470437 29.2548828,36.2435408 29.2725547,36.2399249 C29.2902266,36.2346141 29.3078984,36.2311112 29.3273828,36.2258004 C29.3450547,36.2204895 29.3627266,36.2151787 29.3805117,36.2098678 C29.3858359,36.2080599 29.3911602,36.2063649 29.3964844,36.204557 L35.9473125,33.9323087 L42.4980273,36.204557 C42.5086758,36.2080599 42.5156992,36.2098678 42.5263477,36.2133707 C42.545832,36.2186816 42.5653164,36.2256874 42.5865,36.2309982 C42.5988477,36.2345011 42.6113086,36.236309 42.6254687,36.2398119 C42.6467656,36.2451228 42.6679492,36.2504336 42.6891328,36.2539365 C42.7014805,36.2557445 42.7139414,36.2574394 42.7281016,36.2592473 C42.7493984,36.2627502 42.770582,36.2645582 42.7917656,36.2662531 C42.8094375,36.2680611 42.8307344,36.2680611 42.8484062,36.269756 C42.8625664,36.269756 42.8785391,36.271564 42.8943984,36.271564 C42.9245312,36.271564 42.9545508,36.269756 42.9863828,36.2680611 C42.9934062,36.2662531 43.0040547,36.2662531 43.0128906,36.2645582 C43.0235391,36.2645582 43.0341875,36.2627502 43.0447227,36.2627502 C43.0517461,36.2609423 43.0570703,36.2592473 43.064207,36.2592473 C43.0890156,36.2557445 43.1155234,36.2504336 43.140332,36.2451228 C43.1526797,36.2433148 43.1668398,36.2398119 43.181,36.236309 C43.2039961,36.2309982 43.2288047,36.2239924 43.2518008,36.2168736 C43.2659609,36.2133707 43.2766094,36.2098678 43.2907695,36.204557 L43.2907695,36.204557 L49.8432969,33.9323087 L55.5816719,35.9238735 L55.5816719,36.9867193 L50.2400078,35.1326714 Z" id="Shape"></path>
                    </g>
                </g>
            </g>
        </g>
    </g>
</svg>