<?xml version="1.0" encoding="UTF-8" standalone="no"?>
<svg width="86px" height="90px" viewBox="0 0 86 90" version="1.1" xmlns="http://www.w3.org/2000/svg" xmlns:xlink="http://www.w3.org/1999/xlink">
    <!-- Generator: Sketch 44.1 (41455) - http://www.bohemiancoding.com/sketch -->
    <title>builders</title>
    <desc>Created with Sketch.</desc>
    <defs></defs>
    <g id="show#project" stroke="none" stroke-width="1" fill="none" fill-rule="evenodd">
        <g id="LandingPage" transform="translate(-594.000000, -1182.000000)" fill="#5E5E5E">
            <g id="builders" transform="translate(594.000000, 1182.000000)">
                <path d="M85.324,79.848 C85.33572,79.58628 85.33962,79.32456 85.33962,79.07456 C85.32009,69.26206 77.85522,67.55456 69.24562,65.59056 C68.02682,65.31322 66.79642,65.03197 65.57762,64.72337 C65.09324,64.59837 64.56202,64.47337 64.00342,64.34056 C62.23392,63.92259 60.26902,63.45384 58.54252,62.82496 C56.45662,62.05934 54.73002,61.05936 54.13632,59.60616 C53.78476,58.73897 53.58554,56.94206 53.88241,55.54366 C54.01913,54.90694 54.52304,54.19206 55.10901,53.36786 C55.37854,52.98895 55.64807,52.60223 55.86292,52.25066 C57.22622,49.97726 58.13632,47.98506 58.79652,45.78586 C58.96058,45.2507 59.06214,44.67256 59.1598,44.11396 C59.25355,43.59052 59.3473,43.07876 59.48011,42.60616 C60.83951,42.0085 62.28871,39.78586 63.04261,36.92256 C63.35902,35.69986 63.51136,34.52026 63.51136,33.46946 L22.48836,33.47727 C22.48836,34.52417 22.6368,35.70387 22.95711,36.92647 C23.7032,39.78977 25.15241,42.01237 26.51571,42.61007 C26.65243,43.08273 26.74618,43.59054 26.83602,44.11787 C26.93758,44.67646 27.03524,45.25457 27.1993,45.78977 C27.85946,47.98897 28.7657,49.98117 30.1329,52.25457 C30.34774,52.61004 30.61728,52.99676 30.88681,53.37177 C31.47275,54.19599 31.98061,54.91087 32.11341,55.54757 C32.41029,56.94597 32.21107,58.73897 31.8595,59.61007 C31.26575,61.06317 29.5392,62.06317 27.4533,62.82487 C25.7267,63.45768 23.7619,63.92647 21.9924,64.34047 C21.43381,64.47328 20.9026,64.59438 20.4182,64.71938 C19.1994,65.03188 17.969,65.30922 16.7502,65.58657 C8.1447,67.55137 0.680205,69.25847 0.660204,79.07057 C0.660204,79.32057 0.668017,79.58229 0.675829,79.8401 C0.628954,80.02369 0.605517,80.20729 0.605517,80.39088 C0.605517,85.699481 19.58552,90.000281 43.00052,90.000281 C66.41552,90.000281 85.39552,85.699481 85.39552,80.39478 C85.39552,80.21119 85.36817,80.02759 85.32521,79.8479 L85.324,79.848 Z" id="Fill-1"></path>
                <path d="M20.523,29.633 L65.394,29.633 C67.144,29.633 68.5581,28.215 68.5581,26.4689 C68.5581,24.7189 67.144,23.3048 65.394,23.3048 L64.53462,23.3048 C64.53462,14.8986 59.72212,7.6168 52.70262,4.0588 L50.90962,14.1958 C50.769,15.00049 50.06978,15.563 49.28072,15.563 C49.18697,15.563 49.08931,15.55519 48.99166,15.53956 C48.09322,15.3794 47.49556,14.52396 47.65186,13.62546 L49.69486,2.03946 C48.92924,0.81676 47.56986,0.00036 46.01906,0.00036 L39.89796,0.00036 C38.34716,0.00036 36.99176,0.81677 36.22216,2.03946 L38.26516,13.62146 C38.42141,14.5199 37.82375,15.37926 36.92536,15.53556 C36.8277,15.55119 36.73005,15.559 36.6363,15.559 C35.84724,15.559 35.148,14.9965 35.0074,14.1918 L33.2183,4.0588 C26.1988,7.6174 21.3863,14.8988 21.3863,23.3048 L20.52692,23.3048 C18.77692,23.3048 17.36282,24.7228 17.36282,26.4689 C17.35891,28.2189 18.77302,29.633 20.52302,29.633 L20.523,29.633 Z" id="Fill-2"></path>
            </g>
        </g>
    </g>
</svg>