<?xml version="1.0" encoding="UTF-8" standalone="no"?>
<svg width="38px" height="40px" viewBox="0 0 38 40" version="1.1" xmlns="http://www.w3.org/2000/svg" xmlns:xlink="http://www.w3.org/1999/xlink">
    <!-- Generator: Sketch 41.1 (35376) - http://www.bohemiancoding.com/sketch -->
    <title>site manager</title>
    <desc>Created with Sketch.</desc>
    <defs></defs>
    <g id="DREAMSTONE-website" stroke="none" stroke-width="1" fill="none" fill-rule="evenodd">
        <g id="About" transform="translate(-872.000000, -608.000000)" fill="#4A4A4A">
            <g id="engineer" transform="translate(380.000000, 578.000000)">
                <g id="site-manager" transform="translate(492.808373, 30.000000)">
                    <g id="Group">
                        <path d="M35.6839224,8 L34.2316943,7.18367347 C33.9754188,7.02040816 33.7191433,7.02040816 33.4628677,7.02040816 L29.789585,7.26530612 C27.2268296,2.44897959 22.1013188,0 15.096454,0 C7.06648704,-7.25043608e-16 0.915874071,5.63265306 0.0616222695,13.7959184 C-0.109228091,15.9183673 0.0616222695,17.4693878 0.745023711,19.1020408 L0.14704745,21.0612245 C0.0616222695,21.3877551 0.0616222695,21.7142857 0.23247263,22.0408163 L1.34299997,24.1632653 C1.59927551,24.5714286 2.02640141,24.8979592 2.53895249,24.8979592 L2.70980286,24.8979592 C3.30777912,24.8163265 3.90575538,24.6530612 4.674582,24.3265306 C5.18713308,24.8979592 5.69968416,25.3877551 6.04138488,25.7142857 C6.12681006,25.7959184 6.29766042,25.9591837 6.3830856,26.0408163 C7.57903813,27.2653061 8.26243957,27.9183673 8.43328993,31.3469388 C8.51871511,33.1428571 8.43328993,34.2040816 8.26243957,35.5102041 C8.17701439,35.9183673 8.17701439,36.4081633 8.09158921,36.8979592 C8.00616403,37.6326531 7.92073885,38.2857143 8.51871511,38.8571429 C9.03126619,39.3469388 9.62924245,39.3469388 9.97094317,39.3469388 L21.4179173,39.3469388 C22.0158936,39.3469388 23.2972713,39.1836735 23.3826965,37.3877551 L23.3826965,35.8367347 C23.3826965,35.0204082 23.2972713,33.877551 23.4681216,33.3877551 C23.4681216,33.2244898 23.5535468,33.1428571 23.5535468,32.9795918 L23.9806727,32.9795918 L24.0660979,32.9795918 C29.3624591,32.8163265 30.729262,32.0816327 31.1563879,30.9387755 C31.4126634,30.2040816 31.4980886,28.7346939 31.4980886,26.3673469 L31.4980886,24.8979592 C33.121167,24.4897959 35.0859461,23.755102 35.0859461,21.7142857 C35.0859461,20.4897959 33.8045684,19.1020408 31.7543641,16.9795918 C31.241813,16.4897959 30.5584116,15.755102 30.3021361,15.4285714 C30.3875612,15.0204082 30.3875612,14.3673469 30.3875612,13.7142857 C32.0106397,13.3877551 33.7191433,13.0612245 35.4276469,12.7346939 C36.1110483,12.6530612 36.6235994,12 36.5381742,11.3469388 L36.2818987,8.97959184 C36.2818987,8.57142857 36.0256231,8.16326531 35.6839224,8 Z M32.2669152,21.7959184 C32.0960648,22.0408163 30.8146871,22.3673469 30.2167109,22.5306122 L29.789585,22.6122449 L29.7041598,22.6938776 C28.7644828,23.1020408 28.7644828,23.6734694 28.7644828,26.3673469 C28.7644828,27.3469388 28.7644828,29.1428571 28.6790576,29.877551 C28.2519317,30.0408163 27.1414044,30.3673469 23.9806727,30.4489796 L23.8952475,30.4489796 L23.5535468,30.4489796 C22.0158936,30.3673469 21.3324921,31.0204082 20.8199411,32.8163265 C20.5636655,33.6326531 20.6490907,34.8571429 20.6490907,36 L20.6490907,36.8163265 L10.825195,36.8163265 C10.825195,36.4897959 10.9106202,36.0816327 10.9106202,35.755102 C11.0814705,34.4489796 11.2523209,33.1428571 11.0814705,31.1836735 C10.825195,27.2653061 9.97094317,25.9591837 8.26243957,24.244898 C8.17701439,24.1632653 8.00616403,24 7.83531367,23.8367347 C7.57903813,23.6734694 7.32276259,23.4285714 7.06648704,23.1020408 C7.49361295,22.8571429 8.00616403,22.6122449 8.51871511,22.2857143 C12.5336986,20.0816327 18.7697367,16.6530612 27.5685303,14.3673469 C27.5685303,14.6938776 27.4831051,15.0204082 27.4831051,15.2653061 L27.4831051,15.5918367 C27.3976799,16.4897959 28.0810814,17.1428571 29.7041598,18.7755102 C30.5584116,19.5918367 32.0960648,21.1428571 32.2669152,21.7959184 Z M7.32276259,20 C5.78510934,20.8979592 4.33288128,21.6326531 3.30777912,22.0408163 L2.9660784,21.3061224 L3.56405466,19.4285714 C3.64947984,19.1020408 3.64947984,18.7755102 3.47862948,18.5306122 C2.79522804,17.1428571 2.62437768,15.9183673 2.79522804,14.0408163 C3.47862948,7.26530612 8.51871511,2.53061224 15.096454,2.53061224 C21.5033425,2.53061224 25.6891763,4.73469388 27.7393806,9.14285714 C27.9956562,9.63265306 28.5082073,9.95918367 29.1061835,9.87755102 L33.2920174,9.55102041 L33.8045684,9.79591837 L33.8899936,10.2857143 C20.9907914,12.4897959 12.4482734,17.1428571 7.32276259,20 Z" id="Shape"></path>
                    </g>
                </g>
            </g>
        </g>
    </g>
</svg>