<?xml version="1.0" encoding="UTF-8" standalone="no"?>
<svg width="126px" height="100px" viewBox="0 0 126 100" version="1.1" xmlns="http://www.w3.org/2000/svg" xmlns:xlink="http://www.w3.org/1999/xlink">
    <!-- Generator: Sketch 41.1 (35376) - http://www.bohemiancoding.com/sketch -->
    <title>Soil</title>
    <desc>Created with Sketch.</desc>
    <defs></defs>
    <g id="DREAMSTONE-website" stroke="none" stroke-width="1" fill="none" fill-rule="evenodd">
        <g id="About" transform="translate(-501.000000, -578.000000)" fill="#4A4A4A">
            <g id="engineer" transform="translate(380.000000, 578.000000)">
                <g id="Soil" transform="translate(121.113922, 0.000000)">
                    <g id="Group">
                        <path d="M113.108292,14.4578313 L102.667854,31.1915663 L90.4871347,36.2120482 L87.0065711,64.6590361 L85.2662893,81.3927711 L62.6451321,88.0855422 L40.022722,81.3915663 L34.8018767,49.5975904 L26.1017208,42.9048193 L17.4003119,24.4975904 L0,21.1518072 L0,98.1301205 C2.17503899,98.9662651 4.35007798,99.8 6.96112708,99.8 C12.1819724,99.8 15.661283,96.4542169 20.8821283,96.4542169 C26.1029737,96.4542169 29.5835372,99.8 34.8031296,99.8 C40.022722,99.8 43.5032856,96.4542169 48.7241309,96.4542169 C53.9449762,96.4542169 57.4255397,99.8 62.6451321,99.8 C67.8659774,99.8 71.3452881,96.4542169 76.5661334,96.4542169 C81.7857258,96.4542169 85.2662893,99.8 90.4871347,99.8 C95.7067271,99.8 99.1872906,96.4542169 104.406883,96.4542169 C109.627728,96.4542169 113.107039,99.8 118.327884,99.8 C120.93768,99.8 123.112719,98.9638554 125.289011,98.126506 L125.289011,14.4578313 L113.108292,14.4578313 Z" id="Shape"></path>
                        <path d="M77.5145807,41.7036145 L83.1626658,36.5578313 L75.696619,33.9662651 L75.696619,26.0120482 L77.5145807,26.6421687 L83.1626658,21.4963855 L75.696619,18.9048193 L75.696619,0 L49.5936453,0 L49.5936453,9.84578313 L43.0221709,7.56385542 L43.9129847,14.9975904 L49.5936453,16.9674699 L49.5936453,24.9060241 L43.0221709,22.6240964 L43.9129847,30.0578313 L49.5936453,32.0277108 L49.5936453,39.9662651 L43.0221709,37.6843373 L43.9129847,45.1180723 L49.5936453,47.0879518 L49.5936453,55.0554217 L43.0221709,52.773494 L43.9129847,60.2072289 L49.5936453,62.1771084 L49.5936453,71.2192771 L62.6451321,83.6674699 L75.6928603,71.2216867 L77.5145807,71.8518072 L83.1626658,66.7060241 L75.696619,64.1144578 L75.696619,56.1325301 L77.5145807,56.7626506 L83.1626658,51.6168675 L75.696619,49.0253012 L75.696619,41.0722892 L77.5145807,41.7036145 Z M54.8144906,5.02048193 L70.4757737,5.02048193 L70.4757737,17.0939759 L54.8144906,11.6590361 L54.8144906,5.02048193 Z M54.8144906,18.7759036 L70.4757737,24.2036145 L70.4757737,32.153012 L54.8144906,26.7180723 L54.8144906,18.7759036 Z M62.6451321,76.5698795 L54.8144906,69.1409639 L54.8144906,63.986747 L70.265286,69.339759 L62.6451321,76.5698795 Z M70.4757737,62.3036145 L54.8144906,56.8686747 L54.8144906,48.8975904 L70.4757737,54.3253012 L70.4757737,62.3036145 Z M70.4757737,47.2144578 L54.8144906,41.7795181 L54.8144906,33.8373494 L70.4757737,39.2650602 L70.4757737,47.2144578 Z" id="Shape"></path>
                    </g>
                </g>
            </g>
        </g>
    </g>
</svg>