<?xml version="1.0" encoding="UTF-8" standalone="no"?>
<svg width="45px" height="40px" viewBox="0 0 45 40" version="1.1" xmlns="http://www.w3.org/2000/svg" xmlns:xlink="http://www.w3.org/1999/xlink">
    <!-- Generator: Sketch 41.1 (35376) - http://www.bohemiancoding.com/sketch -->
    <title>structure</title>
    <desc>Created with Sketch.</desc>
    <defs></defs>
    <g id="DREAMSTONE-website" stroke="none" stroke-width="1" fill="none" fill-rule="evenodd">
        <g id="About" transform="translate(-714.000000, -608.000000)" fill="#4A4A4A">
            <g id="engineer" transform="translate(380.000000, 578.000000)">
                <g id="structure" transform="translate(334.107371, 30.000000)">
                    <g id="Group">
                        <path d="M44.895678,7.26200789 L44.8924136,7.26200789 L44.8924136,7.16219536 L44.8456241,7.25425044 L42.475134,6.84413989 L42.3962446,7.25580193 L44.6459523,7.64470877 L30.8261639,34.6473592 L18.6396579,30.7722542 L18.6630527,30.353869 L28.9752557,20.0938651 L33.0443159,20.7651432 L44.8924136,2.44618269 L44.8924136,1.01829465 L30.6596801,0 L0,11.0357489 L0,15.686599 L13.1984665,17.9166074 L13.1821445,19.2364083 L2.07125445,26.5315146 L2.00651075,26.5185856 L2.0103192,26.5718534 L1.98039564,26.5915056 L2.0119514,26.5982287 L2.37321038,31.4042278 L31.6123375,40 L44.8918696,10.3577478 L44.8918696,7.27752279 L44.895678,7.26200789 Z M30.8103861,0.989850669 L43.8657635,1.92436486 L43.8657635,2.09399444 L32.885993,15.4011248 L2.00705481,11.3569074 L30.8103861,0.989850669 Z M3.34817439,30.6683044 L3.12837224,27.7442627 L14.0765869,29.9639279 L14.2354538,17.1010408 L1.02665016,14.8684466 L1.02665016,11.7096128 L1.1463444,11.6666882 L32.6455164,15.7921003 L32.7603141,19.3403581 L32.5339831,19.6904777 L18.3698018,17.3523822 L17.6053908,30.8699981 L17.7740509,30.8787898 L17.7550086,30.9320577 L31.1792619,35.2012412 L31.2831783,38.2452647 L31.0312763,38.8074213 L3.34817439,30.6683044 Z" id="Shape"></path>
                    </g>
                </g>
            </g>
        </g>
    </g>
</svg>