<?xml version="1.0" encoding="UTF-8" standalone="no"?>
<svg width="99px" height="100px" viewBox="0 0 99 100" version="1.1" xmlns="http://www.w3.org/2000/svg" xmlns:xlink="http://www.w3.org/1999/xlink">
    <!-- Generator: Sketch 41.1 (35376) - http://www.bohemiancoding.com/sketch -->
    <title>surveyors</title>
    <desc>Created with Sketch.</desc>
    <defs></defs>
    <g id="DREAMSTONE-website" stroke="none" stroke-width="1" fill="none" fill-rule="evenodd">
        <g id="About" transform="translate(-380.000000, -608.000000)" fill="#4A4A4A">
            <g id="engineer" transform="translate(380.000000, 578.000000)">
                <g id="surveyors" transform="translate(0.000000, 30.000000)">
                    <g id="Group">
                        <g>
                            <path d="M61.7446084,58.0952381 C62.3232058,57.8571429 62.8191464,57.5396825 63.3977438,57.3015873 C63.9763412,56.984127 64.4722818,56.6666667 64.9682225,56.3492063 C66.0427605,55.6349206 67.0346417,54.9206349 67.9438662,54.047619 C68.6051204,53.4126984 69.2663746,52.7777778 69.844972,52.0634921 C70.0102855,51.8253968 70.2582558,51.5873016 70.4235694,51.3492063 C71.1674803,50.3968254 71.7460777,49.4444444 72.3246751,48.4920635 C72.8206157,47.5396825 73.3165564,46.5873016 73.6471835,45.7936508 C74.3084376,44.047619 74.7217215,42.5396825 74.9696918,41.4285714 C75.0523486,40.8730159 75.1350054,40.3968254 75.1350054,40.0793651 L75.1350054,39.8412698 L75.1350054,39.6031746 L75.1350054,39.4444444 L75.1350054,39.2857143 L75.1350054,38.4920635 C74.887035,35.4761905 72.0767048,33.2539683 69.0184043,33.5714286 C65.8774469,33.8095238 63.5630573,36.5079365 63.8936844,39.4444444 L63.8936844,39.4444444 L63.8936844,39.4444444 L63.8936844,39.4444444 L63.8936844,39.4444444 L63.8936844,39.5238095 L63.8936844,40.1587302 C63.8936844,40.7142857 63.8110276,41.6666667 63.6457141,42.7777778 C63.6457141,42.9365079 63.5630573,43.0952381 63.5630573,43.2539683 C63.4804006,43.6507937 63.315087,44.047619 63.2324302,44.5238095 C62.9844599,45.0793651 62.8191464,45.7142857 62.4885193,46.3492063 C62.1578922,46.984127 61.8272651,47.5396825 61.3313245,48.1746032 C60.9180406,48.8095238 60.3394432,49.2857143 59.7608458,49.8412698 C59.4302188,50.0793651 59.1822484,50.3968254 58.8516214,50.6349206 C58.5209943,50.8730159 58.1903672,51.1111111 57.8597401,51.3492063 C57.1984859,51.8253968 56.454575,52.2222222 55.710664,52.5396825 C54.9667531,52.9365079 54.2228421,53.1746032 53.4789312,53.4920635 C52.7350203,53.7301587 52.0737661,53.968254 51.3298551,54.1269841 C50.9992281,54.2063492 50.668601,54.2857143 50.3379739,54.3650794 C50.0073468,54.4444444 49.7593765,54.5238095 49.4287494,54.5238095 C48.850152,54.6825397 48.3542114,54.7619048 47.9409275,54.7619048 C47.1143598,54.9206349 46.6184192,54.9206349 46.6184192,54.9206349 L46.4531056,54.9206349 C45.1305973,55.1587302 44.0560592,56.1904762 44.0560592,57.5396825 C44.0560592,59.047619 45.2959108,60.3174603 46.8663895,60.3174603 L48.3542114,60.3174603 L50.0900036,60.3174603 C50.4206307,60.3174603 50.8339145,60.3174603 51.1645416,60.2380952 C51.5778255,60.2380952 51.9911093,60.1587302 52.4043932,60.1587302 C53.2309609,60.0793651 54.1401854,59.9206349 55.1320666,59.7619048 C56.1239479,59.6031746 57.1158292,59.3650794 58.1903672,59.047619 C59.5955323,58.968254 60.6700703,58.5714286 61.7446084,58.0952381 Z" id="Shape"></path>
                            <path d="M91.170419,91.6666667 C87.5335211,91.6666667 84.5578773,94.5238095 84.5578773,98.015873 L84.5578773,98.3333333 L95.3032576,98.3333333 C97.1217066,98.3333333 98.6921852,96.9047619 98.6921852,95.0793651 L98.6921852,91.5873016 L91.170419,91.5873016 L91.170419,91.6666667 Z" id="Shape"></path>
                            <path d="M57.6944266,98.015873 L57.6944266,98.3333333 L68.4398069,98.3333333 C70.2582558,98.3333333 71.8287345,96.9047619 71.8287345,95.0793651 L71.8287345,91.5873016 L64.389625,91.5873016 C60.6700703,91.6666667 57.6944266,94.5238095 57.6944266,98.015873 Z" id="Shape"></path>
                            <path d="M51.743139,17.5396825 C52.7350203,21.1111111 56.2066047,23.8095238 60.2567865,23.8095238 C64.6375954,23.8095238 68.2744933,20.7142857 68.9357475,16.7460317 C66.1254173,17.4603175 62.0752354,17.8571429 57.6944266,17.8571429 C55.6280073,17.8571429 53.6442447,17.7777778 51.743139,17.5396825 Z" id="Shape"></path>
                            <path d="M51.2471984,13.4920635 L51.5778255,13.4920635 C53.3962744,13.6507937 55.4626937,13.8095238 57.6944266,13.8095238 C62.240549,13.8095238 66.208074,13.3333333 68.5224636,12.6984127 L68.6051204,12.6984127 C69.844972,12.3015873 70.5888829,11.8253968 70.5888829,11.3492063 C70.5888829,11.1904762 70.5062261,11.031746 70.3409126,10.8730159 C69.4316881,9.84126984 68.6051204,8.73015873 68.2744933,7.38095238 C67.1172985,3.0952381 63.7283709,0 59.8435026,0 C55.8759776,0 52.4870499,3.0952381 51.4125119,7.46031746 C51.1645416,8.49206349 50.3379739,9.28571429 49.2634359,9.44444444 C46.6184192,9.92063492 44.9652837,10.5555556 44.9652837,11.3492063 C44.7999702,12.2222222 47.3623301,13.0952381 51.2471984,13.4920635 Z" id="Shape"></path>
                            <rect id="Rectangle-path" x="14.2996215" y="17.7777778" width="22.813269" height="11.1111111"></rect>
                            <rect id="Rectangle-path" x="41.3283858" y="20.0793651" width="5.20737661" height="6.34920635"></rect>
                            <rect id="Rectangle-path" x="4.05018181" y="20.5555556" width="6.19925787" height="5.3968254"></rect>
                            <path d="M30.6656623,35.7936508 L33.9719331,35.7936508 L33.9719331,32.9365079 L17.4405788,32.9365079 L17.4405788,35.7936508 L20.7468497,35.7936508 L0.661254173,94.1269841 C0.330627086,95 0.826567716,95.8730159 1.7357922,96.1111111 C1.90110575,96.1904762 2.06641929,96.1904762 2.23173283,96.1904762 C2.892987,96.1904762 3.55424118,95.7936508 3.80221149,95.0793651 L24.0531205,36.5079365 L24.0531205,98.4126984 C24.0531205,99.2857143 24.7970315,100 25.706256,100 C26.6154804,100 27.3593914,99.2857143 27.3593914,98.4126984 L27.3593914,36.5079365 L47.6103004,95.1587302 C47.8582707,95.7936508 48.5195249,96.2698413 49.1807791,96.2698413 C49.3460926,96.2698413 49.5114062,96.2698413 49.6767197,96.1904762 C50.5859442,95.8730159 50.9992281,95 50.7512577,94.2063492 L30.6656623,35.7936508 Z" id="Shape"></path>
                            <path d="M72.3246751,62.6190476 L65.7947902,71.2698413 L65.133536,72.1428571 C64.7202521,72.6984127 64.4722818,73.4126984 64.389625,74.1269841 L63.9763412,87.6190476 L64.2243115,87.6190476 L72.5726454,87.6190476 L74.9696918,77.5396825 L79.1025304,73.8888889 L77.2014246,69.5238095 L72.3246751,62.6190476 Z" id="Shape"></path>
                            <path d="M91.170419,87.6984127 L98.0309311,87.6984127 L94.9726305,61.3492063 C94.8899738,61.031746 94.807317,60.7936508 94.6420034,60.4761905 L94.2287196,59.7619048 L78.7719033,31.5873016 C78.6892465,31.3492063 78.523933,31.1904762 78.3586194,30.952381 C75.7962595,27.3809524 71.4154506,25.1587302 65.4641631,28.0952381 C61.9925787,29.8412698 60.5874136,32.6984127 60.5047568,35.4761905 C60.9180406,34.6031746 61.4139813,33.7301587 62.0752354,32.9365079 C63.7283709,31.031746 66.1254173,29.8412698 68.7704339,29.6031746 L69.6796584,29.6031746 C74.8043783,29.6031746 79.0198736,33.3333333 79.4331575,38.2539683 C79.5158142,38.7301587 79.5158142,39.1269841 79.4331575,39.6031746 L79.3505007,40.2380952 L79.3505007,40.4761905 C79.2678439,41.1111111 79.1851872,41.6666667 79.1025304,42.2222222 C78.8545601,43.3333333 78.4412762,45.1587302 77.6147085,47.3015873 C77.1187679,48.4126984 76.6228272,49.5238095 76.0442298,50.4761905 C75.4656324,51.4285714 74.7217215,52.6984127 73.7298402,53.8888889 C73.5645267,54.1269841 73.3165564,54.3650794 73.0685861,54.6825397 C72.8206157,55 72.5726454,55.2380952 72.2420183,55.5555556 L74.8043783,59.2063492 L80.8383226,67.6190476 L82.3261445,70.952381 L89.5999404,87.7777778 C90.095881,87.6984127 90.6744784,87.6984127 91.170419,87.6984127 Z" id="Shape"></path>
                        </g>
                    </g>
                </g>
            </g>
        </g>
    </g>
</svg>