<?xml version="1.0" encoding="UTF-8" standalone="no"?>
<svg width="23px" height="40px" viewBox="0 0 23 40" version="1.1" xmlns="http://www.w3.org/2000/svg" xmlns:xlink="http://www.w3.org/1999/xlink">
    <!-- Generator: Sketch 41.1 (35376) - http://www.bohemiancoding.com/sketch -->
    <title>thermal</title>
    <desc>Created with Sketch.</desc>
    <defs></defs>
    <g id="DREAMSTONE-website" stroke="none" stroke-width="1" fill="none" fill-rule="evenodd">
        <g id="About" transform="translate(-658.000000, -618.000000)" fill="#4A4A4A">
            <g id="engineer" transform="translate(380.000000, 578.000000)">
                <g id="thermal" transform="translate(278.000000, 40.000000)">
                    <g id="Group">
                        <g>
                            <path d="M20.175949,27.2466667 L20.175949,4.6875 C20.175949,2.23333333 18.0596278,0.2375 15.457847,0.2375 C12.8560661,0.2375 10.7401866,2.23333333 10.7401866,4.6875 L10.7401866,27.2466667 C9.00993613,28.5725 7.98865985,30.58875 7.98865985,32.71625 C7.98865985,36.60125 11.3391705,39.7625 15.4582887,39.7625 C19.5774069,39.7625 22.9283593,36.60125 22.9283593,32.71625 C22.9279176,30.58875 21.9061996,28.5720833 20.175949,27.2466667 Z M15.457847,38.27875 C12.2062835,38.27875 9.56077156,35.7833333 9.56077156,32.7158333 C9.56077156,30.9329167 10.4680819,29.2495833 11.9876279,28.2125 L12.3127401,27.9904167 L12.3127401,4.6875 C12.3127401,3.05166667 13.7236209,1.72083333 15.457847,1.72083333 C17.1920731,1.72083333 18.6029539,3.05166667 18.6029539,4.6875 L18.6029539,27.9908333 L18.9285078,28.2129167 C20.4476121,29.2495833 21.3549224,30.9333333 21.3549224,32.71625 C21.3553641,35.7833333 18.7094104,38.27875 15.457847,38.27875 Z" id="Shape"></path>
                            <path d="M17.0304004,28.9154167 L17.0304004,17.6795833 C17.0304004,16.86125 16.32496,16.1958333 15.457847,16.1958333 C14.5907339,16.1958333 13.8852935,16.86125 13.8852935,17.6795833 L13.8852935,28.9158333 C12.2274865,29.5229167 11.1328833,31.0170833 11.1328833,32.71625 C11.1328833,34.9654167 13.0729548,36.7954167 15.457847,36.7954167 C17.8427391,36.7954167 19.782369,34.9654167 19.782369,32.71625 C19.782369,31.0166667 18.6882075,29.5225 17.0304004,28.9154167 Z" id="Shape"></path>
                            <polygon id="Shape" points="3.8505473 1.23583333 2.32702572 1.23583333 2.32702572 3.37458333 0.0419642071 3.37458333 0.0419642071 4.85083333 2.32702572 4.85083333 2.32702572 6.98916667 3.8505473 6.98916667 3.8505473 4.85083333 6.14135128 4.85083333 6.14135128 3.37458333 3.8505473 3.37458333"></polygon>
                            <rect id="Rectangle-path" x="1.31723437" y="25.8579167" width="4.77331813" height="1.78041667"></rect>
                        </g>
                    </g>
                </g>
            </g>
        </g>
    </g>
</svg>