<?xml version="1.0" encoding="UTF-8" standalone="no"?>
<svg width="40px" height="40px" viewBox="0 0 40 40" version="1.1" xmlns="http://www.w3.org/2000/svg" xmlns:xlink="http://www.w3.org/1999/xlink">
    <!-- Generator: Sketch 41.1 (35376) - http://www.bohemiancoding.com/sketch -->
    <title>tiler</title>
    <desc>Created with Sketch.</desc>
    <defs></defs>
    <g id="DREAMSTONE-website" stroke="none" stroke-width="1" fill="none" fill-rule="evenodd">
        <g id="About" transform="translate(-980.000000, -786.000000)" fill="#4A4A4A">
            <g id="trades" transform="translate(454.000000, 786.000000)">
                <g id="tiler" transform="translate(526.000000, 0.000000)">
                    <g id="Group">
                        <path d="M39.5061728,26.1234568 C39.5061728,25.8765432 39.4074074,25.6790123 39.2098765,25.5308642 L36.6419753,23.7037037 L39.1604938,21.9259259 C39.3580247,21.7777778 39.4567901,21.5802469 39.4567901,21.3333333 C39.4567901,21.0864198 39.3580247,20.8888889 39.1604938,20.7407407 L32.8888889,16.2469136 L32.8888889,1.08641975 C32.8888889,0.691358025 32.5432099,0.345679012 32.1481481,0.345679012 L11.2098765,0.345679012 C10.8148148,0.345679012 10.4691358,0.691358025 10.4691358,1.08641975 L10.4691358,10.8148148 L0.740740741,10.8148148 C0.345679012,10.8148148 0,11.1604938 0,11.5555556 L0,32.4444444 C0,32.8395062 0.345679012,33.1851852 0.740740741,33.1851852 L18.4197531,33.1851852 L27.2098765,39.4567901 C27.3580247,39.5555556 27.5061728,39.6049383 27.654321,39.6049383 C27.8024691,39.6049383 27.9506173,39.5555556 28.0987654,39.4567901 L39.2592593,31.5061728 C39.4567901,31.3580247 39.5555556,31.1604938 39.5555556,30.9135802 C39.5555556,30.6666667 39.4567901,30.4691358 39.2592593,30.3209877 L36.7407407,28.5432099 L39.2592593,26.7654321 C39.3580247,26.5679012 39.5061728,26.3703704 39.5061728,26.1234568 Z M27.6049383,28.3950617 L17.7283951,21.3333333 L27.6049383,14.2716049 L37.4814815,21.3333333 L27.6049383,28.3950617 Z M16.0493827,26.7160494 L18.5679012,28.4938272 L16.0493827,30.2716049 C15.8518519,30.4197531 15.7530864,30.617284 15.7530864,30.8641975 C15.7530864,31.1111111 15.8518519,31.308642 16.0493827,31.4567901 L16.345679,31.654321 L11.5555556,31.654321 L11.5555556,22.3703704 L16.6419753,22.3703704 L18.5679012,23.7037037 L16.0493827,25.4814815 C15.8518519,25.6296296 15.7530864,25.8271605 15.7530864,26.0740741 C15.7530864,26.3703704 15.8518519,26.5679012 16.0493827,26.7160494 Z M16.0493827,20.7407407 C15.8518519,20.8888889 15.7530864,21.0864198 15.7530864,21.3333333 C15.7530864,21.4320988 15.7530864,21.5308642 15.8024691,21.6296296 L11.5555556,21.6296296 L11.5555556,12.1975309 C11.654321,12.1481481 11.7530864,12.0493827 11.8024691,11.9506173 L21.2345679,11.9506173 L21.2345679,17.037037 L16.0493827,20.7407407 Z M1.48148148,12.2962963 L10.8148148,12.2962963 L10.8148148,21.6296296 L1.48148148,21.6296296 L1.48148148,12.2962963 Z M31.4074074,1.82716049 L31.4074074,11.1604938 L22.0740741,11.1604938 L22.0740741,1.82716049 L31.4074074,1.82716049 Z M11.9506173,1.82716049 L21.2839506,1.82716049 L21.2839506,11.1604938 L11.9506173,11.1604938 L11.9506173,1.82716049 Z M22.0740741,11.9012346 L31.4074074,11.9012346 L31.4074074,15.1604938 L28.0493827,12.7407407 C27.8024691,12.5432099 27.4567901,12.5432099 27.2098765,12.7407407 L22.0740741,16.3950617 L22.0740741,11.9012346 L22.0740741,11.9012346 Z M1.48148148,31.7037037 L1.48148148,22.3703704 L10.8148148,22.3703704 L10.8148148,31.7037037 L1.48148148,31.7037037 L1.48148148,31.7037037 Z M37.4814815,30.9135802 L27.6049383,37.9753086 L17.7283951,30.9135802 L19.8024691,29.4320988 L27.1604938,34.6666667 C27.308642,34.7654321 27.4567901,34.8148148 27.6049383,34.8148148 C27.7530864,34.8148148 27.9012346,34.7654321 28.0493827,34.6666667 L35.4074074,29.4320988 L37.4814815,30.9135802 Z M27.6049383,33.1851852 L17.7283951,26.1234568 L19.8024691,24.6419753 L27.1604938,29.8765432 C27.308642,29.9753086 27.4567901,30.0246914 27.6049383,30.0246914 C27.7530864,30.0246914 27.9012346,29.9753086 28.0493827,29.8765432 L35.4074074,24.6419753 L37.4814815,26.1234568 L27.6049383,33.1851852 Z" id="Shape"></path>
                    </g>
                </g>
            </g>
        </g>
    </g>
</svg>